<?xml version="1.0" encoding="utf-8" standalone="no"?>
<!DOCTYPE svg PUBLIC "-//W3C//DTD SVG 1.1//EN"
  "http://www.w3.org/Graphics/SVG/1.1/DTD/svg11.dtd">
<svg xmlns:xlink="http://www.w3.org/1999/xlink" width="432pt" height="432pt" viewBox="0 0 432 432" xmlns="http://www.w3.org/2000/svg" version="1.1">
 <metadata>
  <rdf:RDF xmlns:dc="http://purl.org/dc/elements/1.1/" xmlns:cc="http://creativecommons.org/ns#" xmlns:rdf="http://www.w3.org/1999/02/22-rdf-syntax-ns#">
   <cc:Work>
    <dc:type rdf:resource="http://purl.org/dc/dcmitype/StillImage"/>
    <dc:date>2024-10-15T14:25:53.194468</dc:date>
    <dc:format>image/svg+xml</dc:format>
    <dc:creator>
     <cc:Agent>
      <dc:title>Matplotlib v3.6.2, https://matplotlib.org/</dc:title>
     </cc:Agent>
    </dc:creator>
   </cc:Work>
  </rdf:RDF>
 </metadata>
 <defs>
  <style type="text/css">*{stroke-linejoin: round; stroke-linecap: butt}</style>
 </defs>
 <g id="figure_1">
  <g id="patch_1">
   <path d="M 0 432 
L 432 432 
L 432 0 
L 0 0 
z
" style="fill: #ffffff"/>
  </g>
  <g id="axes_1">
   <g id="patch_2">
    <path d="M 62.57 390.04 
L 210.6 390.04 
L 210.6 25.44 
L 62.57 25.44 
z
" style="fill: #ffffff"/>
   </g>
   <g id="matplotlib.axis_1">
    <g id="xtick_1">
     <g id="line2d_1">
      <defs>
       <path id="m6e1caec714" d="M 0 0 
L 0 3.5 
" style="stroke: #000000; stroke-width: 0.8"/>
      </defs>
      <g>
       <use xlink:href="#m6e1caec714" x="69.298636" y="390.04" style="stroke: #000000; stroke-width: 0.8"/>
      </g>
     </g>
     <g id="text_1">
      <!-- 0 -->
      <g transform="translate(66.117386 404.638438) scale(0.1 -0.1)">
       <defs>
        <path id="DejaVuSans-30" d="M 2034 4250 
Q 1547 4250 1301 3770 
Q 1056 3291 1056 2328 
Q 1056 1369 1301 889 
Q 1547 409 2034 409 
Q 2525 409 2770 889 
Q 3016 1369 3016 2328 
Q 3016 3291 2770 3770 
Q 2525 4250 2034 4250 
z
M 2034 4750 
Q 2819 4750 3233 4129 
Q 3647 3509 3647 2328 
Q 3647 1150 3233 529 
Q 2819 -91 2034 -91 
Q 1250 -91 836 529 
Q 422 1150 422 2328 
Q 422 3509 836 4129 
Q 1250 4750 2034 4750 
z
" transform="scale(0.015625)"/>
       </defs>
       <use xlink:href="#DejaVuSans-30"/>
      </g>
     </g>
    </g>
    <g id="xtick_2">
     <g id="line2d_2">
      <g>
       <use xlink:href="#m6e1caec714" x="114.156212" y="390.04" style="stroke: #000000; stroke-width: 0.8"/>
      </g>
     </g>
     <g id="text_2">
      <!-- 1 -->
      <g transform="translate(110.974962 404.638438) scale(0.1 -0.1)">
       <defs>
        <path id="DejaVuSans-31" d="M 794 531 
L 1825 531 
L 1825 4091 
L 703 3866 
L 703 4441 
L 1819 4666 
L 2450 4666 
L 2450 531 
L 3481 531 
L 3481 0 
L 794 0 
L 794 531 
z
" transform="scale(0.015625)"/>
       </defs>
       <use xlink:href="#DejaVuSans-31"/>
      </g>
     </g>
    </g>
    <g id="xtick_3">
     <g id="line2d_3">
      <g>
       <use xlink:href="#m6e1caec714" x="159.013788" y="390.04" style="stroke: #000000; stroke-width: 0.8"/>
      </g>
     </g>
     <g id="text_3">
      <!-- 2 -->
      <g transform="translate(155.832538 404.638438) scale(0.1 -0.1)">
       <defs>
        <path id="DejaVuSans-32" d="M 1228 531 
L 3431 531 
L 3431 0 
L 469 0 
L 469 531 
Q 828 903 1448 1529 
Q 2069 2156 2228 2338 
Q 2531 2678 2651 2914 
Q 2772 3150 2772 3378 
Q 2772 3750 2511 3984 
Q 2250 4219 1831 4219 
Q 1534 4219 1204 4116 
Q 875 4013 500 3803 
L 500 4441 
Q 881 4594 1212 4672 
Q 1544 4750 1819 4750 
Q 2544 4750 2975 4387 
Q 3406 4025 3406 3419 
Q 3406 3131 3298 2873 
Q 3191 2616 2906 2266 
Q 2828 2175 2409 1742 
Q 1991 1309 1228 531 
z
" transform="scale(0.015625)"/>
       </defs>
       <use xlink:href="#DejaVuSans-32"/>
      </g>
     </g>
    </g>
    <g id="xtick_4">
     <g id="line2d_4">
      <g>
       <use xlink:href="#m6e1caec714" x="203.871364" y="390.04" style="stroke: #000000; stroke-width: 0.8"/>
      </g>
     </g>
     <g id="text_4">
      <!-- 3 -->
      <g transform="translate(200.690114 404.638438) scale(0.1 -0.1)">
       <defs>
        <path id="DejaVuSans-33" d="M 2597 2516 
Q 3050 2419 3304 2112 
Q 3559 1806 3559 1356 
Q 3559 666 3084 287 
Q 2609 -91 1734 -91 
Q 1441 -91 1130 -33 
Q 819 25 488 141 
L 488 750 
Q 750 597 1062 519 
Q 1375 441 1716 441 
Q 2309 441 2620 675 
Q 2931 909 2931 1356 
Q 2931 1769 2642 2001 
Q 2353 2234 1838 2234 
L 1294 2234 
L 1294 2753 
L 1863 2753 
Q 2328 2753 2575 2939 
Q 2822 3125 2822 3475 
Q 2822 3834 2567 4026 
Q 2313 4219 1838 4219 
Q 1578 4219 1281 4162 
Q 984 4106 628 3988 
L 628 4550 
Q 988 4650 1302 4700 
Q 1616 4750 1894 4750 
Q 2613 4750 3031 4423 
Q 3450 4097 3450 3541 
Q 3450 3153 3228 2886 
Q 3006 2619 2597 2516 
z
" transform="scale(0.015625)"/>
       </defs>
       <use xlink:href="#DejaVuSans-33"/>
      </g>
     </g>
    </g>
    <g id="text_5">
     <!-- Time (t) -->
     <g transform="translate(116.900625 418.316562) scale(0.1 -0.1)">
      <defs>
       <path id="DejaVuSans-54" d="M -19 4666 
L 3928 4666 
L 3928 4134 
L 2272 4134 
L 2272 0 
L 1638 0 
L 1638 4134 
L -19 4134 
L -19 4666 
z
" transform="scale(0.015625)"/>
       <path id="DejaVuSans-69" d="M 603 3500 
L 1178 3500 
L 1178 0 
L 603 0 
L 603 3500 
z
M 603 4863 
L 1178 4863 
L 1178 4134 
L 603 4134 
L 603 4863 
z
" transform="scale(0.015625)"/>
       <path id="DejaVuSans-6d" d="M 3328 2828 
Q 3544 3216 3844 3400 
Q 4144 3584 4550 3584 
Q 5097 3584 5394 3201 
Q 5691 2819 5691 2113 
L 5691 0 
L 5113 0 
L 5113 2094 
Q 5113 2597 4934 2840 
Q 4756 3084 4391 3084 
Q 3944 3084 3684 2787 
Q 3425 2491 3425 1978 
L 3425 0 
L 2847 0 
L 2847 2094 
Q 2847 2600 2669 2842 
Q 2491 3084 2119 3084 
Q 1678 3084 1418 2786 
Q 1159 2488 1159 1978 
L 1159 0 
L 581 0 
L 581 3500 
L 1159 3500 
L 1159 2956 
Q 1356 3278 1631 3431 
Q 1906 3584 2284 3584 
Q 2666 3584 2933 3390 
Q 3200 3197 3328 2828 
z
" transform="scale(0.015625)"/>
       <path id="DejaVuSans-65" d="M 3597 1894 
L 3597 1613 
L 953 1613 
Q 991 1019 1311 708 
Q 1631 397 2203 397 
Q 2534 397 2845 478 
Q 3156 559 3463 722 
L 3463 178 
Q 3153 47 2828 -22 
Q 2503 -91 2169 -91 
Q 1331 -91 842 396 
Q 353 884 353 1716 
Q 353 2575 817 3079 
Q 1281 3584 2069 3584 
Q 2775 3584 3186 3129 
Q 3597 2675 3597 1894 
z
M 3022 2063 
Q 3016 2534 2758 2815 
Q 2500 3097 2075 3097 
Q 1594 3097 1305 2825 
Q 1016 2553 972 2059 
L 3022 2063 
z
" transform="scale(0.015625)"/>
       <path id="DejaVuSans-20" transform="scale(0.015625)"/>
       <path id="DejaVuSans-28" d="M 1984 4856 
Q 1566 4138 1362 3434 
Q 1159 2731 1159 2009 
Q 1159 1288 1364 580 
Q 1569 -128 1984 -844 
L 1484 -844 
Q 1016 -109 783 600 
Q 550 1309 550 2009 
Q 550 2706 781 3412 
Q 1013 4119 1484 4856 
L 1984 4856 
z
" transform="scale(0.015625)"/>
       <path id="DejaVuSans-74" d="M 1172 4494 
L 1172 3500 
L 2356 3500 
L 2356 3053 
L 1172 3053 
L 1172 1153 
Q 1172 725 1289 603 
Q 1406 481 1766 481 
L 2356 481 
L 2356 0 
L 1766 0 
Q 1100 0 847 248 
Q 594 497 594 1153 
L 594 3053 
L 172 3053 
L 172 3500 
L 594 3500 
L 594 4494 
L 1172 4494 
z
" transform="scale(0.015625)"/>
       <path id="DejaVuSans-29" d="M 513 4856 
L 1013 4856 
Q 1481 4119 1714 3412 
Q 1947 2706 1947 2009 
Q 1947 1309 1714 600 
Q 1481 -109 1013 -844 
L 513 -844 
Q 928 -128 1133 580 
Q 1338 1288 1338 2009 
Q 1338 2731 1133 3434 
Q 928 4138 513 4856 
z
" transform="scale(0.015625)"/>
      </defs>
      <use xlink:href="#DejaVuSans-54"/>
      <use xlink:href="#DejaVuSans-69" x="57.958984"/>
      <use xlink:href="#DejaVuSans-6d" x="85.742188"/>
      <use xlink:href="#DejaVuSans-65" x="183.154297"/>
      <use xlink:href="#DejaVuSans-20" x="244.677734"/>
      <use xlink:href="#DejaVuSans-28" x="276.464844"/>
      <use xlink:href="#DejaVuSans-74" x="315.478516"/>
      <use xlink:href="#DejaVuSans-29" x="354.6875"/>
     </g>
    </g>
   </g>
   <g id="matplotlib.axis_2">
    <g id="ytick_1">
     <g id="line2d_5">
      <defs>
       <path id="m2c564a27e5" d="M 0 0 
L -3.5 0 
" style="stroke: #000000; stroke-width: 0.8"/>
      </defs>
      <g>
       <use xlink:href="#m2c564a27e5" x="62.57" y="390.04" style="stroke: #000000; stroke-width: 0.8"/>
      </g>
     </g>
     <g id="text_6">
      <!-- −10.0 -->
      <g transform="translate(24.924688 393.839219) scale(0.1 -0.1)">
       <defs>
        <path id="DejaVuSans-2212" d="M 678 2272 
L 4684 2272 
L 4684 1741 
L 678 1741 
L 678 2272 
z
" transform="scale(0.015625)"/>
        <path id="DejaVuSans-2e" d="M 684 794 
L 1344 794 
L 1344 0 
L 684 0 
L 684 794 
z
" transform="scale(0.015625)"/>
       </defs>
       <use xlink:href="#DejaVuSans-2212"/>
       <use xlink:href="#DejaVuSans-31" x="83.789062"/>
       <use xlink:href="#DejaVuSans-30" x="147.412109"/>
       <use xlink:href="#DejaVuSans-2e" x="211.035156"/>
       <use xlink:href="#DejaVuSans-30" x="242.822266"/>
      </g>
     </g>
    </g>
    <g id="ytick_2">
     <g id="line2d_6">
      <g>
       <use xlink:href="#m2c564a27e5" x="62.57" y="344.465" style="stroke: #000000; stroke-width: 0.8"/>
      </g>
     </g>
     <g id="text_7">
      <!-- −7.5 -->
      <g transform="translate(31.287188 348.264219) scale(0.1 -0.1)">
       <defs>
        <path id="DejaVuSans-37" d="M 525 4666 
L 3525 4666 
L 3525 4397 
L 1831 0 
L 1172 0 
L 2766 4134 
L 525 4134 
L 525 4666 
z
" transform="scale(0.015625)"/>
        <path id="DejaVuSans-35" d="M 691 4666 
L 3169 4666 
L 3169 4134 
L 1269 4134 
L 1269 2991 
Q 1406 3038 1543 3061 
Q 1681 3084 1819 3084 
Q 2600 3084 3056 2656 
Q 3513 2228 3513 1497 
Q 3513 744 3044 326 
Q 2575 -91 1722 -91 
Q 1428 -91 1123 -41 
Q 819 9 494 109 
L 494 744 
Q 775 591 1075 516 
Q 1375 441 1709 441 
Q 2250 441 2565 725 
Q 2881 1009 2881 1497 
Q 2881 1984 2565 2268 
Q 2250 2553 1709 2553 
Q 1456 2553 1204 2497 
Q 953 2441 691 2322 
L 691 4666 
z
" transform="scale(0.015625)"/>
       </defs>
       <use xlink:href="#DejaVuSans-2212"/>
       <use xlink:href="#DejaVuSans-37" x="83.789062"/>
       <use xlink:href="#DejaVuSans-2e" x="147.412109"/>
       <use xlink:href="#DejaVuSans-35" x="179.199219"/>
      </g>
     </g>
    </g>
    <g id="ytick_3">
     <g id="line2d_7">
      <g>
       <use xlink:href="#m2c564a27e5" x="62.57" y="298.89" style="stroke: #000000; stroke-width: 0.8"/>
      </g>
     </g>
     <g id="text_8">
      <!-- −5.0 -->
      <g transform="translate(31.287188 302.689219) scale(0.1 -0.1)">
       <use xlink:href="#DejaVuSans-2212"/>
       <use xlink:href="#DejaVuSans-35" x="83.789062"/>
       <use xlink:href="#DejaVuSans-2e" x="147.412109"/>
       <use xlink:href="#DejaVuSans-30" x="179.199219"/>
      </g>
     </g>
    </g>
    <g id="ytick_4">
     <g id="line2d_8">
      <g>
       <use xlink:href="#m2c564a27e5" x="62.57" y="253.315" style="stroke: #000000; stroke-width: 0.8"/>
      </g>
     </g>
     <g id="text_9">
      <!-- −2.5 -->
      <g transform="translate(31.287188 257.114219) scale(0.1 -0.1)">
       <use xlink:href="#DejaVuSans-2212"/>
       <use xlink:href="#DejaVuSans-32" x="83.789062"/>
       <use xlink:href="#DejaVuSans-2e" x="147.412109"/>
       <use xlink:href="#DejaVuSans-35" x="179.199219"/>
      </g>
     </g>
    </g>
    <g id="ytick_5">
     <g id="line2d_9">
      <g>
       <use xlink:href="#m2c564a27e5" x="62.57" y="207.74" style="stroke: #000000; stroke-width: 0.8"/>
      </g>
     </g>
     <g id="text_10">
      <!-- 0.0 -->
      <g transform="translate(39.666875 211.539219) scale(0.1 -0.1)">
       <use xlink:href="#DejaVuSans-30"/>
       <use xlink:href="#DejaVuSans-2e" x="63.623047"/>
       <use xlink:href="#DejaVuSans-30" x="95.410156"/>
      </g>
     </g>
    </g>
    <g id="ytick_6">
     <g id="line2d_10">
      <g>
       <use xlink:href="#m2c564a27e5" x="62.57" y="162.165" style="stroke: #000000; stroke-width: 0.8"/>
      </g>
     </g>
     <g id="text_11">
      <!-- 2.5 -->
      <g transform="translate(39.666875 165.964219) scale(0.1 -0.1)">
       <use xlink:href="#DejaVuSans-32"/>
       <use xlink:href="#DejaVuSans-2e" x="63.623047"/>
       <use xlink:href="#DejaVuSans-35" x="95.410156"/>
      </g>
     </g>
    </g>
    <g id="ytick_7">
     <g id="line2d_11">
      <g>
       <use xlink:href="#m2c564a27e5" x="62.57" y="116.59" style="stroke: #000000; stroke-width: 0.8"/>
      </g>
     </g>
     <g id="text_12">
      <!-- 5.0 -->
      <g transform="translate(39.666875 120.389219) scale(0.1 -0.1)">
       <use xlink:href="#DejaVuSans-35"/>
       <use xlink:href="#DejaVuSans-2e" x="63.623047"/>
       <use xlink:href="#DejaVuSans-30" x="95.410156"/>
      </g>
     </g>
    </g>
    <g id="ytick_8">
     <g id="line2d_12">
      <g>
       <use xlink:href="#m2c564a27e5" x="62.57" y="71.015" style="stroke: #000000; stroke-width: 0.8"/>
      </g>
     </g>
     <g id="text_13">
      <!-- 7.5 -->
      <g transform="translate(39.666875 74.814219) scale(0.1 -0.1)">
       <use xlink:href="#DejaVuSans-37"/>
       <use xlink:href="#DejaVuSans-2e" x="63.623047"/>
       <use xlink:href="#DejaVuSans-35" x="95.410156"/>
      </g>
     </g>
    </g>
    <g id="ytick_9">
     <g id="line2d_13">
      <g>
       <use xlink:href="#m2c564a27e5" x="62.57" y="25.44" style="stroke: #000000; stroke-width: 0.8"/>
      </g>
     </g>
     <g id="text_14">
      <!-- 10.0 -->
      <g transform="translate(33.304375 29.239219) scale(0.1 -0.1)">
       <use xlink:href="#DejaVuSans-31"/>
       <use xlink:href="#DejaVuSans-30" x="63.623047"/>
       <use xlink:href="#DejaVuSans-2e" x="127.246094"/>
       <use xlink:href="#DejaVuSans-30" x="159.033203"/>
      </g>
     </g>
    </g>
    <g id="text_15">
     <!-- x(t) -->
     <g transform="translate(18.845 216.561094) rotate(-90) scale(0.1 -0.1)">
      <defs>
       <path id="DejaVuSans-78" d="M 3513 3500 
L 2247 1797 
L 3578 0 
L 2900 0 
L 1881 1375 
L 863 0 
L 184 0 
L 1544 1831 
L 300 3500 
L 978 3500 
L 1906 2253 
L 2834 3500 
L 3513 3500 
z
" transform="scale(0.015625)"/>
      </defs>
      <use xlink:href="#DejaVuSans-78"/>
      <use xlink:href="#DejaVuSans-28" x="59.179688"/>
      <use xlink:href="#DejaVuSans-74" x="98.193359"/>
      <use xlink:href="#DejaVuSans-29" x="137.402344"/>
     </g>
    </g>
   </g>
   <g id="line2d_14">
    <path d="M 69.298636 189.51 
L 69.748712 189.506251 
L 70.198788 189.494697 
L 70.648864 189.474836 
L 71.09894 189.446109 
L 71.549016 189.4079 
L 71.999092 189.359515 
L 72.449168 189.299325 
L 72.899244 189.226721 
L 73.34932 189.141525 
L 73.799396 189.043203 
L 74.249472 188.930869 
L 74.699548 188.80328 
L 75.149625 188.65884 
L 75.599701 188.495601 
L 76.049777 188.311257 
L 76.499853 188.10315 
L 76.949929 187.868267 
L 77.400005 187.603242 
L 77.850081 187.304355 
L 78.300157 186.967528 
L 78.750233 186.588335 
L 79.200309 186.16199 
L 79.650385 185.681219 
L 80.100461 185.135848 
L 80.550537 184.514199 
L 81.000613 183.801313 
L 81.450689 182.977635 
L 81.900765 182.018879 
L 82.350841 180.888894 
L 82.800917 179.536653 
L 83.250993 177.889079 
L 83.701069 175.828668 
L 84.151145 173.154444 
L 84.601221 169.488343 
L 85.051297 163.940915 
L 85.501373 153.532588 
" clip-path="url(#p0288650884)" style="fill: none; stroke: #1f77b4; stroke-width: 1.5; stroke-linecap: square"/>
   </g>
   <g id="line2d_15">
    <path d="M 69.298636 134.82 
L 69.748712 134.7844 
L 70.198788 134.680953 
L 70.648864 134.51392 
L 71.09894 134.286534 
L 71.549016 134.001028 
L 71.999092 133.658826 
L 72.449168 133.260375 
L 72.899244 132.805588 
L 73.34932 132.29393 
L 73.799396 131.724426 
L 74.249472 131.095656 
L 74.699548 130.405756 
L 75.149625 129.652419 
L 75.599701 128.832894 
L 76.049777 127.943709 
L 76.499853 126.978604 
L 76.949929 125.933833 
L 77.400005 124.805236 
L 77.850081 123.587181 
L 78.300157 122.272551 
L 78.750233 120.852755 
L 79.200309 119.317723 
L 79.650385 117.655903 
L 80.100461 115.854269 
L 80.550537 113.898314 
L 81.000613 111.772052 
L 81.450689 109.458022 
L 81.900765 106.929205 
L 82.350841 104.131353 
L 82.800917 101.064277 
L 83.250993 97.717586 
L 83.701069 94.06009 
L 84.151145 90.039796 
L 84.601221 85.583911 
L 85.051297 80.59884 
L 85.501373 74.970187 
L 85.951449 68.562756 
L 86.401525 61.220548 
L 86.851601 52.766763 
L 87.301677 43.003242 
L 87.751753 31.583463 
L 88.201829 18.074533 
L 88.651905 1.83155 
L 88.715742 -1 
" clip-path="url(#p0288650884)" style="fill: none; stroke: #ff7f0e; stroke-width: 1.5; stroke-linecap: square"/>
   </g>
   <g id="line2d_16">
    <path d="M 69.298636 244.2 
L 70.198788 244.067068 
L 71.09894 243.717116 
L 72.449168 242.911876 
L 74.249472 241.539474 
L 83.701069 233.910399 
L 86.401525 232.165047 
L 89.101981 230.658326 
L 91.802437 229.374612 
L 94.952969 228.130414 
L 98.103501 227.126758 
L 101.704109 226.235393 
L 105.304717 225.576237 
L 109.355401 225.070751 
L 113.406085 224.780978 
L 118.356922 224.654606 
L 124.657986 224.735206 
L 132.759354 225.082989 
L 148.96209 225.841059 
L 159.313839 226.068296 
L 172.816119 226.115367 
L 203.871364 225.97615 
L 203.871364 225.97615 
" clip-path="url(#p0288650884)" style="fill: none; stroke: #2ca02c; stroke-width: 1.5; stroke-linecap: square"/>
   </g>
   <g id="line2d_17">
    <path d="M 69.298636 162.165 
L 69.748712 161.694483 
L 70.198788 161.196152 
L 70.648864 160.667807 
L 71.09894 160.106969 
L 71.549016 159.51088 
L 71.999092 158.876262 
L 72.449168 158.198346 
L 72.899244 157.474602 
L 73.34932 156.701867 
L 73.799396 155.875659 
L 74.249472 154.990171 
L 74.699548 154.038277 
L 75.149625 153.011527 
L 75.599701 151.90015 
L 76.049777 150.693054 
L 76.499853 149.377825 
L 76.949929 147.940725 
L 77.400005 146.366177 
L 77.850081 144.631016 
L 78.300157 142.709489 
L 78.750233 140.566627 
L 79.200309 138.156187 
L 79.650385 135.4194 
L 80.100461 132.271344 
L 80.550537 128.622305 
L 81.000613 124.289948 
L 81.450689 118.977227 
L 81.900765 112.230471 
L 82.350841 103.028383 
L 82.800917 88.391286 
L 83.250993 34.210102 
" clip-path="url(#p0288650884)" style="fill: none; stroke: #d62728; stroke-width: 1.5; stroke-linecap: square"/>
   </g>
   <g id="patch_3">
    <path d="M 62.57 390.04 
L 62.57 25.44 
" style="fill: none; stroke: #000000; stroke-width: 0.8; stroke-linejoin: miter; stroke-linecap: square"/>
   </g>
   <g id="patch_4">
    <path d="M 210.6 390.04 
L 210.6 25.44 
" style="fill: none; stroke: #000000; stroke-width: 0.8; stroke-linejoin: miter; stroke-linecap: square"/>
   </g>
   <g id="patch_5">
    <path d="M 62.57 390.04 
L 210.6 390.04 
" style="fill: none; stroke: #000000; stroke-width: 0.8; stroke-linejoin: miter; stroke-linecap: square"/>
   </g>
   <g id="patch_6">
    <path d="M 62.57 25.44 
L 210.6 25.44 
" style="fill: none; stroke: #000000; stroke-width: 0.8; stroke-linejoin: miter; stroke-linecap: square"/>
   </g>
   <g id="text_16">
    <!-- (a) -->
    <g transform="translate(128.22625 19.44) scale(0.12 -0.12)">
     <defs>
      <path id="DejaVuSans-61" d="M 2194 1759 
Q 1497 1759 1228 1600 
Q 959 1441 959 1056 
Q 959 750 1161 570 
Q 1363 391 1709 391 
Q 2188 391 2477 730 
Q 2766 1069 2766 1631 
L 2766 1759 
L 2194 1759 
z
M 3341 1997 
L 3341 0 
L 2766 0 
L 2766 531 
Q 2569 213 2275 61 
Q 1981 -91 1556 -91 
Q 1019 -91 701 211 
Q 384 513 384 1019 
Q 384 1609 779 1909 
Q 1175 2209 1959 2209 
L 2766 2209 
L 2766 2266 
Q 2766 2663 2505 2880 
Q 2244 3097 1772 3097 
Q 1472 3097 1187 3025 
Q 903 2953 641 2809 
L 641 3341 
Q 956 3463 1253 3523 
Q 1550 3584 1831 3584 
Q 2591 3584 2966 3190 
Q 3341 2797 3341 1997 
z
" transform="scale(0.015625)"/>
     </defs>
     <use xlink:href="#DejaVuSans-28"/>
     <use xlink:href="#DejaVuSans-61" x="39.013672"/>
     <use xlink:href="#DejaVuSans-29" x="100.292969"/>
    </g>
   </g>
   <g id="legend_1">
    <g id="patch_7">
     <path d="M 99.614062 92.1525 
L 203.6 92.1525 
Q 205.6 92.1525 205.6 90.1525 
L 205.6 32.44 
Q 205.6 30.44 203.6 30.44 
L 99.614062 30.44 
Q 97.614062 30.44 97.614062 32.44 
L 97.614062 90.1525 
Q 97.614062 92.1525 99.614062 92.1525 
z
" style="fill: #ffffff; opacity: 0.8; stroke: #cccccc; stroke-linejoin: miter"/>
    </g>
    <g id="line2d_18">
     <path d="M 101.614062 38.538438 
L 111.614062 38.538438 
L 121.614062 38.538438 
" style="fill: none; stroke: #1f77b4; stroke-width: 1.5; stroke-linecap: square"/>
    </g>
    <g id="text_17">
     <!-- IC 1: (1, 1) -->
     <g transform="translate(129.614062 42.038438) scale(0.1 -0.1)">
      <defs>
       <path id="DejaVuSans-49" d="M 628 4666 
L 1259 4666 
L 1259 0 
L 628 0 
L 628 4666 
z
" transform="scale(0.015625)"/>
       <path id="DejaVuSans-43" d="M 4122 4306 
L 4122 3641 
Q 3803 3938 3442 4084 
Q 3081 4231 2675 4231 
Q 1875 4231 1450 3742 
Q 1025 3253 1025 2328 
Q 1025 1406 1450 917 
Q 1875 428 2675 428 
Q 3081 428 3442 575 
Q 3803 722 4122 1019 
L 4122 359 
Q 3791 134 3420 21 
Q 3050 -91 2638 -91 
Q 1578 -91 968 557 
Q 359 1206 359 2328 
Q 359 3453 968 4101 
Q 1578 4750 2638 4750 
Q 3056 4750 3426 4639 
Q 3797 4528 4122 4306 
z
" transform="scale(0.015625)"/>
       <path id="DejaVuSans-3a" d="M 750 794 
L 1409 794 
L 1409 0 
L 750 0 
L 750 794 
z
M 750 3309 
L 1409 3309 
L 1409 2516 
L 750 2516 
L 750 3309 
z
" transform="scale(0.015625)"/>
       <path id="DejaVuSans-2c" d="M 750 794 
L 1409 794 
L 1409 256 
L 897 -744 
L 494 -744 
L 750 256 
L 750 794 
z
" transform="scale(0.015625)"/>
      </defs>
      <use xlink:href="#DejaVuSans-49"/>
      <use xlink:href="#DejaVuSans-43" x="29.492188"/>
      <use xlink:href="#DejaVuSans-20" x="99.316406"/>
      <use xlink:href="#DejaVuSans-31" x="131.103516"/>
      <use xlink:href="#DejaVuSans-3a" x="194.726562"/>
      <use xlink:href="#DejaVuSans-20" x="228.417969"/>
      <use xlink:href="#DejaVuSans-28" x="260.205078"/>
      <use xlink:href="#DejaVuSans-31" x="299.21875"/>
      <use xlink:href="#DejaVuSans-2c" x="362.841797"/>
      <use xlink:href="#DejaVuSans-20" x="394.628906"/>
      <use xlink:href="#DejaVuSans-31" x="426.416016"/>
      <use xlink:href="#DejaVuSans-29" x="490.039062"/>
     </g>
    </g>
    <g id="line2d_19">
     <path d="M 101.614062 53.216563 
L 111.614062 53.216563 
L 121.614062 53.216563 
" style="fill: none; stroke: #ff7f0e; stroke-width: 1.5; stroke-linecap: square"/>
    </g>
    <g id="text_18">
     <!-- IC 2: (4, -2) -->
     <g transform="translate(129.614062 56.716563) scale(0.1 -0.1)">
      <defs>
       <path id="DejaVuSans-34" d="M 2419 4116 
L 825 1625 
L 2419 1625 
L 2419 4116 
z
M 2253 4666 
L 3047 4666 
L 3047 1625 
L 3713 1625 
L 3713 1100 
L 3047 1100 
L 3047 0 
L 2419 0 
L 2419 1100 
L 313 1100 
L 313 1709 
L 2253 4666 
z
" transform="scale(0.015625)"/>
       <path id="DejaVuSans-2d" d="M 313 2009 
L 1997 2009 
L 1997 1497 
L 313 1497 
L 313 2009 
z
" transform="scale(0.015625)"/>
      </defs>
      <use xlink:href="#DejaVuSans-49"/>
      <use xlink:href="#DejaVuSans-43" x="29.492188"/>
      <use xlink:href="#DejaVuSans-20" x="99.316406"/>
      <use xlink:href="#DejaVuSans-32" x="131.103516"/>
      <use xlink:href="#DejaVuSans-3a" x="194.726562"/>
      <use xlink:href="#DejaVuSans-20" x="228.417969"/>
      <use xlink:href="#DejaVuSans-28" x="260.205078"/>
      <use xlink:href="#DejaVuSans-34" x="299.21875"/>
      <use xlink:href="#DejaVuSans-2c" x="362.841797"/>
      <use xlink:href="#DejaVuSans-20" x="394.628906"/>
      <use xlink:href="#DejaVuSans-2d" x="426.416016"/>
      <use xlink:href="#DejaVuSans-32" x="462.5"/>
      <use xlink:href="#DejaVuSans-29" x="526.123047"/>
     </g>
    </g>
    <g id="line2d_20">
     <path d="M 101.614062 67.894688 
L 111.614062 67.894688 
L 121.614062 67.894688 
" style="fill: none; stroke: #2ca02c; stroke-width: 1.5; stroke-linecap: square"/>
    </g>
    <g id="text_19">
     <!-- IC 3: (-2, 4) -->
     <g transform="translate(129.614062 71.394688) scale(0.1 -0.1)">
      <use xlink:href="#DejaVuSans-49"/>
      <use xlink:href="#DejaVuSans-43" x="29.492188"/>
      <use xlink:href="#DejaVuSans-20" x="99.316406"/>
      <use xlink:href="#DejaVuSans-33" x="131.103516"/>
      <use xlink:href="#DejaVuSans-3a" x="194.726562"/>
      <use xlink:href="#DejaVuSans-20" x="228.417969"/>
      <use xlink:href="#DejaVuSans-28" x="260.205078"/>
      <use xlink:href="#DejaVuSans-2d" x="299.21875"/>
      <use xlink:href="#DejaVuSans-32" x="335.302734"/>
      <use xlink:href="#DejaVuSans-2c" x="398.925781"/>
      <use xlink:href="#DejaVuSans-20" x="430.712891"/>
      <use xlink:href="#DejaVuSans-34" x="462.5"/>
      <use xlink:href="#DejaVuSans-29" x="526.123047"/>
     </g>
    </g>
    <g id="line2d_21">
     <path d="M 101.614062 82.572813 
L 111.614062 82.572813 
L 121.614062 82.572813 
" style="fill: none; stroke: #d62728; stroke-width: 1.5; stroke-linecap: square"/>
    </g>
    <g id="text_20">
     <!-- IC 4: (2.5, 0.5) -->
     <g transform="translate(129.614062 86.072813) scale(0.1 -0.1)">
      <use xlink:href="#DejaVuSans-49"/>
      <use xlink:href="#DejaVuSans-43" x="29.492188"/>
      <use xlink:href="#DejaVuSans-20" x="99.316406"/>
      <use xlink:href="#DejaVuSans-34" x="131.103516"/>
      <use xlink:href="#DejaVuSans-3a" x="194.726562"/>
      <use xlink:href="#DejaVuSans-20" x="228.417969"/>
      <use xlink:href="#DejaVuSans-28" x="260.205078"/>
      <use xlink:href="#DejaVuSans-32" x="299.21875"/>
      <use xlink:href="#DejaVuSans-2e" x="362.841797"/>
      <use xlink:href="#DejaVuSans-35" x="394.628906"/>
      <use xlink:href="#DejaVuSans-2c" x="458.251953"/>
      <use xlink:href="#DejaVuSans-20" x="490.039062"/>
      <use xlink:href="#DejaVuSans-30" x="521.826172"/>
      <use xlink:href="#DejaVuSans-2e" x="585.449219"/>
      <use xlink:href="#DejaVuSans-35" x="617.236328"/>
      <use xlink:href="#DejaVuSans-29" x="680.859375"/>
     </g>
    </g>
   </g>
  </g>
  <g id="axes_2">
   <g id="patch_8">
    <path d="M 273.17 390.04 
L 421.2 390.04 
L 421.2 25.44 
L 273.17 25.44 
z
" style="fill: #ffffff"/>
   </g>
   <g id="matplotlib.axis_3">
    <g id="xtick_5">
     <g id="line2d_22">
      <g>
       <use xlink:href="#m6e1caec714" x="279.898636" y="390.04" style="stroke: #000000; stroke-width: 0.8"/>
      </g>
     </g>
     <g id="text_21">
      <!-- 0 -->
      <g transform="translate(276.717386 404.638438) scale(0.1 -0.1)">
       <use xlink:href="#DejaVuSans-30"/>
      </g>
     </g>
    </g>
    <g id="xtick_6">
     <g id="line2d_23">
      <g>
       <use xlink:href="#m6e1caec714" x="324.756212" y="390.04" style="stroke: #000000; stroke-width: 0.8"/>
      </g>
     </g>
     <g id="text_22">
      <!-- 1 -->
      <g transform="translate(321.574962 404.638438) scale(0.1 -0.1)">
       <use xlink:href="#DejaVuSans-31"/>
      </g>
     </g>
    </g>
    <g id="xtick_7">
     <g id="line2d_24">
      <g>
       <use xlink:href="#m6e1caec714" x="369.613788" y="390.04" style="stroke: #000000; stroke-width: 0.8"/>
      </g>
     </g>
     <g id="text_23">
      <!-- 2 -->
      <g transform="translate(366.432538 404.638438) scale(0.1 -0.1)">
       <use xlink:href="#DejaVuSans-32"/>
      </g>
     </g>
    </g>
    <g id="xtick_8">
     <g id="line2d_25">
      <g>
       <use xlink:href="#m6e1caec714" x="414.471364" y="390.04" style="stroke: #000000; stroke-width: 0.8"/>
      </g>
     </g>
     <g id="text_24">
      <!-- 3 -->
      <g transform="translate(411.290114 404.638438) scale(0.1 -0.1)">
       <use xlink:href="#DejaVuSans-33"/>
      </g>
     </g>
    </g>
    <g id="text_25">
     <!-- Time (t) -->
     <g transform="translate(327.500625 418.316562) scale(0.1 -0.1)">
      <use xlink:href="#DejaVuSans-54"/>
      <use xlink:href="#DejaVuSans-69" x="57.958984"/>
      <use xlink:href="#DejaVuSans-6d" x="85.742188"/>
      <use xlink:href="#DejaVuSans-65" x="183.154297"/>
      <use xlink:href="#DejaVuSans-20" x="244.677734"/>
      <use xlink:href="#DejaVuSans-28" x="276.464844"/>
      <use xlink:href="#DejaVuSans-74" x="315.478516"/>
      <use xlink:href="#DejaVuSans-29" x="354.6875"/>
     </g>
    </g>
   </g>
   <g id="matplotlib.axis_4">
    <g id="ytick_10">
     <g id="line2d_26">
      <g>
       <use xlink:href="#m2c564a27e5" x="273.17" y="390.04" style="stroke: #000000; stroke-width: 0.8"/>
      </g>
     </g>
     <g id="text_26">
      <!-- −10.0 -->
      <g transform="translate(235.524687 393.839219) scale(0.1 -0.1)">
       <use xlink:href="#DejaVuSans-2212"/>
       <use xlink:href="#DejaVuSans-31" x="83.789062"/>
       <use xlink:href="#DejaVuSans-30" x="147.412109"/>
       <use xlink:href="#DejaVuSans-2e" x="211.035156"/>
       <use xlink:href="#DejaVuSans-30" x="242.822266"/>
      </g>
     </g>
    </g>
    <g id="ytick_11">
     <g id="line2d_27">
      <g>
       <use xlink:href="#m2c564a27e5" x="273.17" y="344.465" style="stroke: #000000; stroke-width: 0.8"/>
      </g>
     </g>
     <g id="text_27">
      <!-- −7.5 -->
      <g transform="translate(241.887187 348.264219) scale(0.1 -0.1)">
       <use xlink:href="#DejaVuSans-2212"/>
       <use xlink:href="#DejaVuSans-37" x="83.789062"/>
       <use xlink:href="#DejaVuSans-2e" x="147.412109"/>
       <use xlink:href="#DejaVuSans-35" x="179.199219"/>
      </g>
     </g>
    </g>
    <g id="ytick_12">
     <g id="line2d_28">
      <g>
       <use xlink:href="#m2c564a27e5" x="273.17" y="298.89" style="stroke: #000000; stroke-width: 0.8"/>
      </g>
     </g>
     <g id="text_28">
      <!-- −5.0 -->
      <g transform="translate(241.887187 302.689219) scale(0.1 -0.1)">
       <use xlink:href="#DejaVuSans-2212"/>
       <use xlink:href="#DejaVuSans-35" x="83.789062"/>
       <use xlink:href="#DejaVuSans-2e" x="147.412109"/>
       <use xlink:href="#DejaVuSans-30" x="179.199219"/>
      </g>
     </g>
    </g>
    <g id="ytick_13">
     <g id="line2d_29">
      <g>
       <use xlink:href="#m2c564a27e5" x="273.17" y="253.315" style="stroke: #000000; stroke-width: 0.8"/>
      </g>
     </g>
     <g id="text_29">
      <!-- −2.5 -->
      <g transform="translate(241.887187 257.114219) scale(0.1 -0.1)">
       <use xlink:href="#DejaVuSans-2212"/>
       <use xlink:href="#DejaVuSans-32" x="83.789062"/>
       <use xlink:href="#DejaVuSans-2e" x="147.412109"/>
       <use xlink:href="#DejaVuSans-35" x="179.199219"/>
      </g>
     </g>
    </g>
    <g id="ytick_14">
     <g id="line2d_30">
      <g>
       <use xlink:href="#m2c564a27e5" x="273.17" y="207.74" style="stroke: #000000; stroke-width: 0.8"/>
      </g>
     </g>
     <g id="text_30">
      <!-- 0.0 -->
      <g transform="translate(250.266875 211.539219) scale(0.1 -0.1)">
       <use xlink:href="#DejaVuSans-30"/>
       <use xlink:href="#DejaVuSans-2e" x="63.623047"/>
       <use xlink:href="#DejaVuSans-30" x="95.410156"/>
      </g>
     </g>
    </g>
    <g id="ytick_15">
     <g id="line2d_31">
      <g>
       <use xlink:href="#m2c564a27e5" x="273.17" y="162.165" style="stroke: #000000; stroke-width: 0.8"/>
      </g>
     </g>
     <g id="text_31">
      <!-- 2.5 -->
      <g transform="translate(250.266875 165.964219) scale(0.1 -0.1)">
       <use xlink:href="#DejaVuSans-32"/>
       <use xlink:href="#DejaVuSans-2e" x="63.623047"/>
       <use xlink:href="#DejaVuSans-35" x="95.410156"/>
      </g>
     </g>
    </g>
    <g id="ytick_16">
     <g id="line2d_32">
      <g>
       <use xlink:href="#m2c564a27e5" x="273.17" y="116.59" style="stroke: #000000; stroke-width: 0.8"/>
      </g>
     </g>
     <g id="text_32">
      <!-- 5.0 -->
      <g transform="translate(250.266875 120.389219) scale(0.1 -0.1)">
       <use xlink:href="#DejaVuSans-35"/>
       <use xlink:href="#DejaVuSans-2e" x="63.623047"/>
       <use xlink:href="#DejaVuSans-30" x="95.410156"/>
      </g>
     </g>
    </g>
    <g id="ytick_17">
     <g id="line2d_33">
      <g>
       <use xlink:href="#m2c564a27e5" x="273.17" y="71.015" style="stroke: #000000; stroke-width: 0.8"/>
      </g>
     </g>
     <g id="text_33">
      <!-- 7.5 -->
      <g transform="translate(250.266875 74.814219) scale(0.1 -0.1)">
       <use xlink:href="#DejaVuSans-37"/>
       <use xlink:href="#DejaVuSans-2e" x="63.623047"/>
       <use xlink:href="#DejaVuSans-35" x="95.410156"/>
      </g>
     </g>
    </g>
    <g id="ytick_18">
     <g id="line2d_34">
      <g>
       <use xlink:href="#m2c564a27e5" x="273.17" y="25.44" style="stroke: #000000; stroke-width: 0.8"/>
      </g>
     </g>
     <g id="text_34">
      <!-- 10.0 -->
      <g transform="translate(243.904375 29.239219) scale(0.1 -0.1)">
       <use xlink:href="#DejaVuSans-31"/>
       <use xlink:href="#DejaVuSans-30" x="63.623047"/>
       <use xlink:href="#DejaVuSans-2e" x="127.246094"/>
       <use xlink:href="#DejaVuSans-30" x="159.033203"/>
      </g>
     </g>
    </g>
    <g id="text_35">
     <!-- y(t) -->
     <g transform="translate(229.445 216.561094) rotate(-90) scale(0.1 -0.1)">
      <defs>
       <path id="DejaVuSans-79" d="M 2059 -325 
Q 1816 -950 1584 -1140 
Q 1353 -1331 966 -1331 
L 506 -1331 
L 506 -850 
L 844 -850 
Q 1081 -850 1212 -737 
Q 1344 -625 1503 -206 
L 1606 56 
L 191 3500 
L 800 3500 
L 1894 763 
L 2988 3500 
L 3597 3500 
L 2059 -325 
z
" transform="scale(0.015625)"/>
      </defs>
      <use xlink:href="#DejaVuSans-79"/>
      <use xlink:href="#DejaVuSans-28" x="59.179688"/>
      <use xlink:href="#DejaVuSans-74" x="98.193359"/>
      <use xlink:href="#DejaVuSans-29" x="137.402344"/>
     </g>
    </g>
   </g>
   <g id="line2d_35">
    <path d="M 279.898636 189.51 
L 280.348712 188.75956 
L 280.798788 187.969776 
L 281.248864 187.137771 
L 281.69894 186.260311 
L 282.149016 185.333808 
L 282.599092 184.354121 
L 283.049168 183.308896 
L 283.499244 182.195014 
L 283.94932 181.013461 
L 284.399396 179.762419 
L 284.849472 178.437261 
L 285.299548 177.030554 
L 285.749625 175.532058 
L 286.199701 173.928726 
L 286.649777 172.204705 
L 287.099853 170.341333 
L 287.549929 168.317143 
L 288.000005 166.10786 
L 288.450081 163.686403 
L 288.900157 161.022885 
L 289.350233 158.084609 
L 289.800309 154.836074 
L 290.250385 151.219164 
L 290.700461 147.14925 
L 291.150537 142.52421 
L 291.600613 137.20667 
L 292.050689 131.005048 
L 292.500765 123.680071 
L 292.950841 114.830641 
L 293.400917 103.844669 
L 293.850993 89.774828 
L 294.301069 70.912152 
L 294.751145 43.881874 
L 295.201221 1.302072 
L 295.214099 -1 
" clip-path="url(#p4686106a43)" style="fill: none; stroke: #1f77b4; stroke-width: 1.5; stroke-linecap: square"/>
   </g>
   <g id="line2d_36">
    <path d="M 279.898636 244.2 
L 280.348712 242.481884 
L 280.798788 240.960934 
L 281.248864 239.604141 
L 281.69894 238.384078 
L 282.149016 237.278427 
L 282.599092 236.267345 
L 283.049168 235.340691 
L 283.499244 234.49031 
L 283.94932 233.708141 
L 284.399396 232.986216 
L 284.849472 232.316663 
L 285.299548 231.691704 
L 285.749625 231.103655 
L 286.199701 230.544926 
L 286.649777 230.008594 
L 287.099853 229.495545 
L 287.549929 229.005526 
L 288.000005 228.536776 
L 288.450081 228.087503 
L 288.900157 227.65588 
L 289.350233 227.240049 
L 289.800309 226.838116 
L 290.250385 226.448157 
L 290.700461 226.068213 
L 291.150537 225.696291 
L 291.600613 225.330367 
L 292.050689 224.968382 
L 292.500765 224.608495 
L 292.950841 224.250788 
L 293.400917 223.895044 
L 293.850993 223.540699 
L 294.301069 223.187023 
L 294.751145 222.833119 
L 295.201221 222.477924 
L 295.651297 222.120209 
L 296.101373 221.758578 
L 296.551449 221.391468 
L 297.001525 221.017151 
L 297.451601 220.633731 
L 297.901677 220.239151 
L 298.351753 219.832145 
L 298.801829 219.411267 
L 299.251905 218.973956 
L 299.701981 218.517107 
L 300.152057 218.036853 
L 300.602133 217.528184 
L 301.052209 216.985532 
L 301.502285 216.398272 
L 301.952361 215.750187 
L 302.402437 215.01701 
L 302.852513 214.147763 
L 303.302589 213.002526 
" clip-path="url(#p4686106a43)" style="fill: none; stroke: #ff7f0e; stroke-width: 1.5; stroke-linecap: square"/>
   </g>
   <g id="line2d_37">
    <path d="M 279.898636 134.82 
L 280.798788 141.278833 
L 281.69894 146.339304 
L 282.599092 150.368527 
L 283.499244 153.612329 
L 284.399396 156.235839 
L 285.299548 158.373752 
L 286.649777 160.894417 
L 288.000005 162.793968 
L 289.350233 164.211581 
L 290.700461 165.25092 
L 292.050689 165.994299 
L 293.400917 166.503304 
L 294.751145 166.818789 
L 296.551449 166.990831 
L 298.351753 166.931851 
L 300.602133 166.597403 
L 302.852513 166.037641 
L 305.552969 165.14489 
L 309.153577 163.691503 
L 313.654337 161.590042 
L 323.556009 156.832462 
L 327.606694 155.180852 
L 331.657378 153.774336 
L 335.257986 152.762557 
L 338.408518 152.087315 
L 341.55905 151.631927 
L 345.159658 151.349763 
L 349.210342 151.25844 
L 354.161178 151.381323 
L 361.362394 151.813037 
L 376.214903 152.761198 
L 386.566651 153.103958 
L 397.368475 153.22435 
L 414.471364 153.169678 
L 414.471364 153.169678 
" clip-path="url(#p4686106a43)" style="fill: none; stroke: #2ca02c; stroke-width: 1.5; stroke-linecap: square"/>
   </g>
   <g id="line2d_38">
    <path d="M 279.898636 198.625 
L 280.348712 198.224666 
L 280.798788 197.799683 
L 281.248864 197.347756 
L 281.69894 196.866213 
L 282.149016 196.352011 
L 282.599092 195.801126 
L 283.049168 195.206079 
L 283.499244 194.5656 
L 283.94932 193.877429 
L 284.399396 193.136569 
L 284.849472 192.335288 
L 285.299548 191.463119 
L 285.749625 190.506857 
L 286.199701 189.450562 
L 286.649777 188.275558 
L 287.099853 186.960431 
L 287.549929 185.481033 
L 288.000005 183.808665 
L 288.450081 181.893406 
L 288.900157 179.682849 
L 289.350233 177.09003 
L 289.800309 173.985245 
L 290.250385 170.184197 
L 290.700461 165.34843 
L 291.150537 159.281123 
L 291.600613 151.092597 
L 292.050689 138.985404 
L 292.500765 119.801186 
L 292.950841 83.741613 
L 293.338522 -1 
" clip-path="url(#p4686106a43)" style="fill: none; stroke: #d62728; stroke-width: 1.5; stroke-linecap: square"/>
   </g>
   <g id="patch_9">
    <path d="M 273.17 390.04 
L 273.17 25.44 
" style="fill: none; stroke: #000000; stroke-width: 0.8; stroke-linejoin: miter; stroke-linecap: square"/>
   </g>
   <g id="patch_10">
    <path d="M 421.2 390.04 
L 421.2 25.44 
" style="fill: none; stroke: #000000; stroke-width: 0.8; stroke-linejoin: miter; stroke-linecap: square"/>
   </g>
   <g id="patch_11">
    <path d="M 273.17 390.04 
L 421.2 390.04 
" style="fill: none; stroke: #000000; stroke-width: 0.8; stroke-linejoin: miter; stroke-linecap: square"/>
   </g>
   <g id="patch_12">
    <path d="M 273.17 25.44 
L 421.2 25.44 
" style="fill: none; stroke: #000000; stroke-width: 0.8; stroke-linejoin: miter; stroke-linecap: square"/>
   </g>
   <g id="text_36">
    <!-- (b) -->
    <g transform="translate(338.694062 19.44) scale(0.12 -0.12)">
     <defs>
      <path id="DejaVuSans-62" d="M 3116 1747 
Q 3116 2381 2855 2742 
Q 2594 3103 2138 3103 
Q 1681 3103 1420 2742 
Q 1159 2381 1159 1747 
Q 1159 1113 1420 752 
Q 1681 391 2138 391 
Q 2594 391 2855 752 
Q 3116 1113 3116 1747 
z
M 1159 2969 
Q 1341 3281 1617 3432 
Q 1894 3584 2278 3584 
Q 2916 3584 3314 3078 
Q 3713 2572 3713 1747 
Q 3713 922 3314 415 
Q 2916 -91 2278 -91 
Q 1894 -91 1617 61 
Q 1341 213 1159 525 
L 1159 0 
L 581 0 
L 581 4863 
L 1159 4863 
L 1159 2969 
z
" transform="scale(0.015625)"/>
     </defs>
     <use xlink:href="#DejaVuSans-28"/>
     <use xlink:href="#DejaVuSans-62" x="39.013672"/>
     <use xlink:href="#DejaVuSans-29" x="102.490234"/>
    </g>
   </g>
   <g id="legend_2">
    <g id="patch_13">
     <path d="M 310.214062 92.1525 
L 414.2 92.1525 
Q 416.2 92.1525 416.2 90.1525 
L 416.2 32.44 
Q 416.2 30.44 414.2 30.44 
L 310.214062 30.44 
Q 308.214062 30.44 308.214062 32.44 
L 308.214062 90.1525 
Q 308.214062 92.1525 310.214062 92.1525 
z
" style="fill: #ffffff; opacity: 0.8; stroke: #cccccc; stroke-linejoin: miter"/>
    </g>
    <g id="line2d_39">
     <path d="M 312.214062 38.538438 
L 322.214062 38.538438 
L 332.214062 38.538438 
" style="fill: none; stroke: #1f77b4; stroke-width: 1.5; stroke-linecap: square"/>
    </g>
    <g id="text_37">
     <!-- IC 1: (1, 1) -->
     <g transform="translate(340.214062 42.038438) scale(0.1 -0.1)">
      <use xlink:href="#DejaVuSans-49"/>
      <use xlink:href="#DejaVuSans-43" x="29.492188"/>
      <use xlink:href="#DejaVuSans-20" x="99.316406"/>
      <use xlink:href="#DejaVuSans-31" x="131.103516"/>
      <use xlink:href="#DejaVuSans-3a" x="194.726562"/>
      <use xlink:href="#DejaVuSans-20" x="228.417969"/>
      <use xlink:href="#DejaVuSans-28" x="260.205078"/>
      <use xlink:href="#DejaVuSans-31" x="299.21875"/>
      <use xlink:href="#DejaVuSans-2c" x="362.841797"/>
      <use xlink:href="#DejaVuSans-20" x="394.628906"/>
      <use xlink:href="#DejaVuSans-31" x="426.416016"/>
      <use xlink:href="#DejaVuSans-29" x="490.039062"/>
     </g>
    </g>
    <g id="line2d_40">
     <path d="M 312.214062 53.216563 
L 322.214062 53.216563 
L 332.214062 53.216563 
" style="fill: none; stroke: #ff7f0e; stroke-width: 1.5; stroke-linecap: square"/>
    </g>
    <g id="text_38">
     <!-- IC 2: (4, -2) -->
     <g transform="translate(340.214062 56.716563) scale(0.1 -0.1)">
      <use xlink:href="#DejaVuSans-49"/>
      <use xlink:href="#DejaVuSans-43" x="29.492188"/>
      <use xlink:href="#DejaVuSans-20" x="99.316406"/>
      <use xlink:href="#DejaVuSans-32" x="131.103516"/>
      <use xlink:href="#DejaVuSans-3a" x="194.726562"/>
      <use xlink:href="#DejaVuSans-20" x="228.417969"/>
      <use xlink:href="#DejaVuSans-28" x="260.205078"/>
      <use xlink:href="#DejaVuSans-34" x="299.21875"/>
      <use xlink:href="#DejaVuSans-2c" x="362.841797"/>
      <use xlink:href="#DejaVuSans-20" x="394.628906"/>
      <use xlink:href="#DejaVuSans-2d" x="426.416016"/>
      <use xlink:href="#DejaVuSans-32" x="462.5"/>
      <use xlink:href="#DejaVuSans-29" x="526.123047"/>
     </g>
    </g>
    <g id="line2d_41">
     <path d="M 312.214062 67.894688 
L 322.214062 67.894688 
L 332.214062 67.894688 
" style="fill: none; stroke: #2ca02c; stroke-width: 1.5; stroke-linecap: square"/>
    </g>
    <g id="text_39">
     <!-- IC 3: (-2, 4) -->
     <g transform="translate(340.214062 71.394688) scale(0.1 -0.1)">
      <use xlink:href="#DejaVuSans-49"/>
      <use xlink:href="#DejaVuSans-43" x="29.492188"/>
      <use xlink:href="#DejaVuSans-20" x="99.316406"/>
      <use xlink:href="#DejaVuSans-33" x="131.103516"/>
      <use xlink:href="#DejaVuSans-3a" x="194.726562"/>
      <use xlink:href="#DejaVuSans-20" x="228.417969"/>
      <use xlink:href="#DejaVuSans-28" x="260.205078"/>
      <use xlink:href="#DejaVuSans-2d" x="299.21875"/>
      <use xlink:href="#DejaVuSans-32" x="335.302734"/>
      <use xlink:href="#DejaVuSans-2c" x="398.925781"/>
      <use xlink:href="#DejaVuSans-20" x="430.712891"/>
      <use xlink:href="#DejaVuSans-34" x="462.5"/>
      <use xlink:href="#DejaVuSans-29" x="526.123047"/>
     </g>
    </g>
    <g id="line2d_42">
     <path d="M 312.214062 82.572813 
L 322.214062 82.572813 
L 332.214062 82.572813 
" style="fill: none; stroke: #d62728; stroke-width: 1.5; stroke-linecap: square"/>
    </g>
    <g id="text_40">
     <!-- IC 4: (2.5, 0.5) -->
     <g transform="translate(340.214062 86.072813) scale(0.1 -0.1)">
      <use xlink:href="#DejaVuSans-49"/>
      <use xlink:href="#DejaVuSans-43" x="29.492188"/>
      <use xlink:href="#DejaVuSans-20" x="99.316406"/>
      <use xlink:href="#DejaVuSans-34" x="131.103516"/>
      <use xlink:href="#DejaVuSans-3a" x="194.726562"/>
      <use xlink:href="#DejaVuSans-20" x="228.417969"/>
      <use xlink:href="#DejaVuSans-28" x="260.205078"/>
      <use xlink:href="#DejaVuSans-32" x="299.21875"/>
      <use xlink:href="#DejaVuSans-2e" x="362.841797"/>
      <use xlink:href="#DejaVuSans-35" x="394.628906"/>
      <use xlink:href="#DejaVuSans-2c" x="458.251953"/>
      <use xlink:href="#DejaVuSans-20" x="490.039062"/>
      <use xlink:href="#DejaVuSans-30" x="521.826172"/>
      <use xlink:href="#DejaVuSans-2e" x="585.449219"/>
      <use xlink:href="#DejaVuSans-35" x="617.236328"/>
      <use xlink:href="#DejaVuSans-29" x="680.859375"/>
     </g>
    </g>
   </g>
  </g>
 </g>
 <defs>
  <clipPath id="p0288650884">
   <rect x="62.57" y="25.44" width="148.03" height="364.6"/>
  </clipPath>
  <clipPath id="p4686106a43">
   <rect x="273.17" y="25.44" width="148.03" height="364.6"/>
  </clipPath>
 </defs>
</svg>
