<?xml version="1.0" encoding="utf-8" standalone="no"?>
<!DOCTYPE svg PUBLIC "-//W3C//DTD SVG 1.1//EN"
  "http://www.w3.org/Graphics/SVG/1.1/DTD/svg11.dtd">
<svg xmlns:xlink="http://www.w3.org/1999/xlink" width="864pt" height="576pt" viewBox="0 0 864 576" xmlns="http://www.w3.org/2000/svg" version="1.1">
 <metadata>
  <rdf:RDF xmlns:dc="http://purl.org/dc/elements/1.1/" xmlns:cc="http://creativecommons.org/ns#" xmlns:rdf="http://www.w3.org/1999/02/22-rdf-syntax-ns#">
   <cc:Work>
    <dc:type rdf:resource="http://purl.org/dc/dcmitype/StillImage"/>
    <dc:date>2024-10-15T14:55:14.915138</dc:date>
    <dc:format>image/svg+xml</dc:format>
    <dc:creator>
     <cc:Agent>
      <dc:title>Matplotlib v3.6.2, https://matplotlib.org/</dc:title>
     </cc:Agent>
    </dc:creator>
   </cc:Work>
  </rdf:RDF>
 </metadata>
 <defs>
  <style type="text/css">*{stroke-linejoin: round; stroke-linecap: butt}</style>
 </defs>
 <g id="figure_1">
  <g id="patch_1">
   <path d="M 0 576 
L 864 576 
L 864 0 
L 0 0 
z
" style="fill: #ffffff"/>
  </g>
  <g id="axes_1">
   <g id="patch_2">
    <path d="M 62.57 251.44 
L 853.2 251.44 
L 853.2 25.44 
L 62.57 25.44 
z
" style="fill: #ffffff"/>
   </g>
   <g id="matplotlib.axis_1">
    <g id="xtick_1">
     <g id="line2d_1">
      <defs>
       <path id="m62632d20e6" d="M 0 0 
L 0 3.5 
" style="stroke: #000000; stroke-width: 0.8"/>
      </defs>
      <g>
       <use xlink:href="#m62632d20e6" x="62.57" y="251.44" style="stroke: #000000; stroke-width: 0.8"/>
      </g>
     </g>
     <g id="text_1">
      <!-- 0.0 -->
      <g transform="translate(54.618438 266.038437) scale(0.1 -0.1)">
       <defs>
        <path id="DejaVuSans-30" d="M 2034 4250 
Q 1547 4250 1301 3770 
Q 1056 3291 1056 2328 
Q 1056 1369 1301 889 
Q 1547 409 2034 409 
Q 2525 409 2770 889 
Q 3016 1369 3016 2328 
Q 3016 3291 2770 3770 
Q 2525 4250 2034 4250 
z
M 2034 4750 
Q 2819 4750 3233 4129 
Q 3647 3509 3647 2328 
Q 3647 1150 3233 529 
Q 2819 -91 2034 -91 
Q 1250 -91 836 529 
Q 422 1150 422 2328 
Q 422 3509 836 4129 
Q 1250 4750 2034 4750 
z
" transform="scale(0.015625)"/>
        <path id="DejaVuSans-2e" d="M 684 794 
L 1344 794 
L 1344 0 
L 684 0 
L 684 794 
z
" transform="scale(0.015625)"/>
       </defs>
       <use xlink:href="#DejaVuSans-30"/>
       <use xlink:href="#DejaVuSans-2e" x="63.623047"/>
       <use xlink:href="#DejaVuSans-30" x="95.410156"/>
      </g>
     </g>
    </g>
    <g id="xtick_2">
     <g id="line2d_2">
      <g>
       <use xlink:href="#m62632d20e6" x="188.066825" y="251.44" style="stroke: #000000; stroke-width: 0.8"/>
      </g>
     </g>
     <g id="text_2">
      <!-- 0.5 -->
      <g transform="translate(180.115263 266.038437) scale(0.1 -0.1)">
       <defs>
        <path id="DejaVuSans-35" d="M 691 4666 
L 3169 4666 
L 3169 4134 
L 1269 4134 
L 1269 2991 
Q 1406 3038 1543 3061 
Q 1681 3084 1819 3084 
Q 2600 3084 3056 2656 
Q 3513 2228 3513 1497 
Q 3513 744 3044 326 
Q 2575 -91 1722 -91 
Q 1428 -91 1123 -41 
Q 819 9 494 109 
L 494 744 
Q 775 591 1075 516 
Q 1375 441 1709 441 
Q 2250 441 2565 725 
Q 2881 1009 2881 1497 
Q 2881 1984 2565 2268 
Q 2250 2553 1709 2553 
Q 1456 2553 1204 2497 
Q 953 2441 691 2322 
L 691 4666 
z
" transform="scale(0.015625)"/>
       </defs>
       <use xlink:href="#DejaVuSans-30"/>
       <use xlink:href="#DejaVuSans-2e" x="63.623047"/>
       <use xlink:href="#DejaVuSans-35" x="95.410156"/>
      </g>
     </g>
    </g>
    <g id="xtick_3">
     <g id="line2d_3">
      <g>
       <use xlink:href="#m62632d20e6" x="313.563651" y="251.44" style="stroke: #000000; stroke-width: 0.8"/>
      </g>
     </g>
     <g id="text_3">
      <!-- 1.0 -->
      <g transform="translate(305.612088 266.038437) scale(0.1 -0.1)">
       <defs>
        <path id="DejaVuSans-31" d="M 794 531 
L 1825 531 
L 1825 4091 
L 703 3866 
L 703 4441 
L 1819 4666 
L 2450 4666 
L 2450 531 
L 3481 531 
L 3481 0 
L 794 0 
L 794 531 
z
" transform="scale(0.015625)"/>
       </defs>
       <use xlink:href="#DejaVuSans-31"/>
       <use xlink:href="#DejaVuSans-2e" x="63.623047"/>
       <use xlink:href="#DejaVuSans-30" x="95.410156"/>
      </g>
     </g>
    </g>
    <g id="xtick_4">
     <g id="line2d_4">
      <g>
       <use xlink:href="#m62632d20e6" x="439.060476" y="251.44" style="stroke: #000000; stroke-width: 0.8"/>
      </g>
     </g>
     <g id="text_4">
      <!-- 1.5 -->
      <g transform="translate(431.108914 266.038437) scale(0.1 -0.1)">
       <use xlink:href="#DejaVuSans-31"/>
       <use xlink:href="#DejaVuSans-2e" x="63.623047"/>
       <use xlink:href="#DejaVuSans-35" x="95.410156"/>
      </g>
     </g>
    </g>
    <g id="xtick_5">
     <g id="line2d_5">
      <g>
       <use xlink:href="#m62632d20e6" x="564.557302" y="251.44" style="stroke: #000000; stroke-width: 0.8"/>
      </g>
     </g>
     <g id="text_5">
      <!-- 2.0 -->
      <g transform="translate(556.605739 266.038437) scale(0.1 -0.1)">
       <defs>
        <path id="DejaVuSans-32" d="M 1228 531 
L 3431 531 
L 3431 0 
L 469 0 
L 469 531 
Q 828 903 1448 1529 
Q 2069 2156 2228 2338 
Q 2531 2678 2651 2914 
Q 2772 3150 2772 3378 
Q 2772 3750 2511 3984 
Q 2250 4219 1831 4219 
Q 1534 4219 1204 4116 
Q 875 4013 500 3803 
L 500 4441 
Q 881 4594 1212 4672 
Q 1544 4750 1819 4750 
Q 2544 4750 2975 4387 
Q 3406 4025 3406 3419 
Q 3406 3131 3298 2873 
Q 3191 2616 2906 2266 
Q 2828 2175 2409 1742 
Q 1991 1309 1228 531 
z
" transform="scale(0.015625)"/>
       </defs>
       <use xlink:href="#DejaVuSans-32"/>
       <use xlink:href="#DejaVuSans-2e" x="63.623047"/>
       <use xlink:href="#DejaVuSans-30" x="95.410156"/>
      </g>
     </g>
    </g>
    <g id="xtick_6">
     <g id="line2d_6">
      <g>
       <use xlink:href="#m62632d20e6" x="690.054127" y="251.44" style="stroke: #000000; stroke-width: 0.8"/>
      </g>
     </g>
     <g id="text_6">
      <!-- 2.5 -->
      <g transform="translate(682.102564 266.038437) scale(0.1 -0.1)">
       <use xlink:href="#DejaVuSans-32"/>
       <use xlink:href="#DejaVuSans-2e" x="63.623047"/>
       <use xlink:href="#DejaVuSans-35" x="95.410156"/>
      </g>
     </g>
    </g>
    <g id="xtick_7">
     <g id="line2d_7">
      <g>
       <use xlink:href="#m62632d20e6" x="815.550952" y="251.44" style="stroke: #000000; stroke-width: 0.8"/>
      </g>
     </g>
     <g id="text_7">
      <!-- 3.0 -->
      <g transform="translate(807.59939 266.038437) scale(0.1 -0.1)">
       <defs>
        <path id="DejaVuSans-33" d="M 2597 2516 
Q 3050 2419 3304 2112 
Q 3559 1806 3559 1356 
Q 3559 666 3084 287 
Q 2609 -91 1734 -91 
Q 1441 -91 1130 -33 
Q 819 25 488 141 
L 488 750 
Q 750 597 1062 519 
Q 1375 441 1716 441 
Q 2309 441 2620 675 
Q 2931 909 2931 1356 
Q 2931 1769 2642 2001 
Q 2353 2234 1838 2234 
L 1294 2234 
L 1294 2753 
L 1863 2753 
Q 2328 2753 2575 2939 
Q 2822 3125 2822 3475 
Q 2822 3834 2567 4026 
Q 2313 4219 1838 4219 
Q 1578 4219 1281 4162 
Q 984 4106 628 3988 
L 628 4550 
Q 988 4650 1302 4700 
Q 1616 4750 1894 4750 
Q 2613 4750 3031 4423 
Q 3450 4097 3450 3541 
Q 3450 3153 3228 2886 
Q 3006 2619 2597 2516 
z
" transform="scale(0.015625)"/>
       </defs>
       <use xlink:href="#DejaVuSans-33"/>
       <use xlink:href="#DejaVuSans-2e" x="63.623047"/>
       <use xlink:href="#DejaVuSans-30" x="95.410156"/>
      </g>
     </g>
    </g>
    <g id="text_8">
     <!-- Time (t) -->
     <g transform="translate(438.200625 279.716563) scale(0.1 -0.1)">
      <defs>
       <path id="DejaVuSans-54" d="M -19 4666 
L 3928 4666 
L 3928 4134 
L 2272 4134 
L 2272 0 
L 1638 0 
L 1638 4134 
L -19 4134 
L -19 4666 
z
" transform="scale(0.015625)"/>
       <path id="DejaVuSans-69" d="M 603 3500 
L 1178 3500 
L 1178 0 
L 603 0 
L 603 3500 
z
M 603 4863 
L 1178 4863 
L 1178 4134 
L 603 4134 
L 603 4863 
z
" transform="scale(0.015625)"/>
       <path id="DejaVuSans-6d" d="M 3328 2828 
Q 3544 3216 3844 3400 
Q 4144 3584 4550 3584 
Q 5097 3584 5394 3201 
Q 5691 2819 5691 2113 
L 5691 0 
L 5113 0 
L 5113 2094 
Q 5113 2597 4934 2840 
Q 4756 3084 4391 3084 
Q 3944 3084 3684 2787 
Q 3425 2491 3425 1978 
L 3425 0 
L 2847 0 
L 2847 2094 
Q 2847 2600 2669 2842 
Q 2491 3084 2119 3084 
Q 1678 3084 1418 2786 
Q 1159 2488 1159 1978 
L 1159 0 
L 581 0 
L 581 3500 
L 1159 3500 
L 1159 2956 
Q 1356 3278 1631 3431 
Q 1906 3584 2284 3584 
Q 2666 3584 2933 3390 
Q 3200 3197 3328 2828 
z
" transform="scale(0.015625)"/>
       <path id="DejaVuSans-65" d="M 3597 1894 
L 3597 1613 
L 953 1613 
Q 991 1019 1311 708 
Q 1631 397 2203 397 
Q 2534 397 2845 478 
Q 3156 559 3463 722 
L 3463 178 
Q 3153 47 2828 -22 
Q 2503 -91 2169 -91 
Q 1331 -91 842 396 
Q 353 884 353 1716 
Q 353 2575 817 3079 
Q 1281 3584 2069 3584 
Q 2775 3584 3186 3129 
Q 3597 2675 3597 1894 
z
M 3022 2063 
Q 3016 2534 2758 2815 
Q 2500 3097 2075 3097 
Q 1594 3097 1305 2825 
Q 1016 2553 972 2059 
L 3022 2063 
z
" transform="scale(0.015625)"/>
       <path id="DejaVuSans-20" transform="scale(0.015625)"/>
       <path id="DejaVuSans-28" d="M 1984 4856 
Q 1566 4138 1362 3434 
Q 1159 2731 1159 2009 
Q 1159 1288 1364 580 
Q 1569 -128 1984 -844 
L 1484 -844 
Q 1016 -109 783 600 
Q 550 1309 550 2009 
Q 550 2706 781 3412 
Q 1013 4119 1484 4856 
L 1984 4856 
z
" transform="scale(0.015625)"/>
       <path id="DejaVuSans-74" d="M 1172 4494 
L 1172 3500 
L 2356 3500 
L 2356 3053 
L 1172 3053 
L 1172 1153 
Q 1172 725 1289 603 
Q 1406 481 1766 481 
L 2356 481 
L 2356 0 
L 1766 0 
Q 1100 0 847 248 
Q 594 497 594 1153 
L 594 3053 
L 172 3053 
L 172 3500 
L 594 3500 
L 594 4494 
L 1172 4494 
z
" transform="scale(0.015625)"/>
       <path id="DejaVuSans-29" d="M 513 4856 
L 1013 4856 
Q 1481 4119 1714 3412 
Q 1947 2706 1947 2009 
Q 1947 1309 1714 600 
Q 1481 -109 1013 -844 
L 513 -844 
Q 928 -128 1133 580 
Q 1338 1288 1338 2009 
Q 1338 2731 1133 3434 
Q 928 4138 513 4856 
z
" transform="scale(0.015625)"/>
      </defs>
      <use xlink:href="#DejaVuSans-54"/>
      <use xlink:href="#DejaVuSans-69" x="57.958984"/>
      <use xlink:href="#DejaVuSans-6d" x="85.742188"/>
      <use xlink:href="#DejaVuSans-65" x="183.154297"/>
      <use xlink:href="#DejaVuSans-20" x="244.677734"/>
      <use xlink:href="#DejaVuSans-28" x="276.464844"/>
      <use xlink:href="#DejaVuSans-74" x="315.478516"/>
      <use xlink:href="#DejaVuSans-29" x="354.6875"/>
     </g>
    </g>
   </g>
   <g id="matplotlib.axis_2">
    <g id="ytick_1">
     <g id="line2d_8">
      <defs>
       <path id="mbe6bdf83d7" d="M 0 0 
L -3.5 0 
" style="stroke: #000000; stroke-width: 0.8"/>
      </defs>
      <g>
       <use xlink:href="#mbe6bdf83d7" x="62.57" y="251.44" style="stroke: #000000; stroke-width: 0.8"/>
      </g>
     </g>
     <g id="text_9">
      <!-- −10.0 -->
      <g transform="translate(24.924688 255.239219) scale(0.1 -0.1)">
       <defs>
        <path id="DejaVuSans-2212" d="M 678 2272 
L 4684 2272 
L 4684 1741 
L 678 1741 
L 678 2272 
z
" transform="scale(0.015625)"/>
       </defs>
       <use xlink:href="#DejaVuSans-2212"/>
       <use xlink:href="#DejaVuSans-31" x="83.789062"/>
       <use xlink:href="#DejaVuSans-30" x="147.412109"/>
       <use xlink:href="#DejaVuSans-2e" x="211.035156"/>
       <use xlink:href="#DejaVuSans-30" x="242.822266"/>
      </g>
     </g>
    </g>
    <g id="ytick_2">
     <g id="line2d_9">
      <g>
       <use xlink:href="#mbe6bdf83d7" x="62.57" y="223.19" style="stroke: #000000; stroke-width: 0.8"/>
      </g>
     </g>
     <g id="text_10">
      <!-- −7.5 -->
      <g transform="translate(31.287188 226.989219) scale(0.1 -0.1)">
       <defs>
        <path id="DejaVuSans-37" d="M 525 4666 
L 3525 4666 
L 3525 4397 
L 1831 0 
L 1172 0 
L 2766 4134 
L 525 4134 
L 525 4666 
z
" transform="scale(0.015625)"/>
       </defs>
       <use xlink:href="#DejaVuSans-2212"/>
       <use xlink:href="#DejaVuSans-37" x="83.789062"/>
       <use xlink:href="#DejaVuSans-2e" x="147.412109"/>
       <use xlink:href="#DejaVuSans-35" x="179.199219"/>
      </g>
     </g>
    </g>
    <g id="ytick_3">
     <g id="line2d_10">
      <g>
       <use xlink:href="#mbe6bdf83d7" x="62.57" y="194.94" style="stroke: #000000; stroke-width: 0.8"/>
      </g>
     </g>
     <g id="text_11">
      <!-- −5.0 -->
      <g transform="translate(31.287188 198.739219) scale(0.1 -0.1)">
       <use xlink:href="#DejaVuSans-2212"/>
       <use xlink:href="#DejaVuSans-35" x="83.789062"/>
       <use xlink:href="#DejaVuSans-2e" x="147.412109"/>
       <use xlink:href="#DejaVuSans-30" x="179.199219"/>
      </g>
     </g>
    </g>
    <g id="ytick_4">
     <g id="line2d_11">
      <g>
       <use xlink:href="#mbe6bdf83d7" x="62.57" y="166.69" style="stroke: #000000; stroke-width: 0.8"/>
      </g>
     </g>
     <g id="text_12">
      <!-- −2.5 -->
      <g transform="translate(31.287188 170.489219) scale(0.1 -0.1)">
       <use xlink:href="#DejaVuSans-2212"/>
       <use xlink:href="#DejaVuSans-32" x="83.789062"/>
       <use xlink:href="#DejaVuSans-2e" x="147.412109"/>
       <use xlink:href="#DejaVuSans-35" x="179.199219"/>
      </g>
     </g>
    </g>
    <g id="ytick_5">
     <g id="line2d_12">
      <g>
       <use xlink:href="#mbe6bdf83d7" x="62.57" y="138.44" style="stroke: #000000; stroke-width: 0.8"/>
      </g>
     </g>
     <g id="text_13">
      <!-- 0.0 -->
      <g transform="translate(39.666875 142.239219) scale(0.1 -0.1)">
       <use xlink:href="#DejaVuSans-30"/>
       <use xlink:href="#DejaVuSans-2e" x="63.623047"/>
       <use xlink:href="#DejaVuSans-30" x="95.410156"/>
      </g>
     </g>
    </g>
    <g id="ytick_6">
     <g id="line2d_13">
      <g>
       <use xlink:href="#mbe6bdf83d7" x="62.57" y="110.19" style="stroke: #000000; stroke-width: 0.8"/>
      </g>
     </g>
     <g id="text_14">
      <!-- 2.5 -->
      <g transform="translate(39.666875 113.989219) scale(0.1 -0.1)">
       <use xlink:href="#DejaVuSans-32"/>
       <use xlink:href="#DejaVuSans-2e" x="63.623047"/>
       <use xlink:href="#DejaVuSans-35" x="95.410156"/>
      </g>
     </g>
    </g>
    <g id="ytick_7">
     <g id="line2d_14">
      <g>
       <use xlink:href="#mbe6bdf83d7" x="62.57" y="81.94" style="stroke: #000000; stroke-width: 0.8"/>
      </g>
     </g>
     <g id="text_15">
      <!-- 5.0 -->
      <g transform="translate(39.666875 85.739219) scale(0.1 -0.1)">
       <use xlink:href="#DejaVuSans-35"/>
       <use xlink:href="#DejaVuSans-2e" x="63.623047"/>
       <use xlink:href="#DejaVuSans-30" x="95.410156"/>
      </g>
     </g>
    </g>
    <g id="ytick_8">
     <g id="line2d_15">
      <g>
       <use xlink:href="#mbe6bdf83d7" x="62.57" y="53.69" style="stroke: #000000; stroke-width: 0.8"/>
      </g>
     </g>
     <g id="text_16">
      <!-- 7.5 -->
      <g transform="translate(39.666875 57.489219) scale(0.1 -0.1)">
       <use xlink:href="#DejaVuSans-37"/>
       <use xlink:href="#DejaVuSans-2e" x="63.623047"/>
       <use xlink:href="#DejaVuSans-35" x="95.410156"/>
      </g>
     </g>
    </g>
    <g id="ytick_9">
     <g id="line2d_16">
      <g>
       <use xlink:href="#mbe6bdf83d7" x="62.57" y="25.44" style="stroke: #000000; stroke-width: 0.8"/>
      </g>
     </g>
     <g id="text_17">
      <!-- 10.0 -->
      <g transform="translate(33.304375 29.239219) scale(0.1 -0.1)">
       <use xlink:href="#DejaVuSans-31"/>
       <use xlink:href="#DejaVuSans-30" x="63.623047"/>
       <use xlink:href="#DejaVuSans-2e" x="127.246094"/>
       <use xlink:href="#DejaVuSans-30" x="159.033203"/>
      </g>
     </g>
    </g>
    <g id="text_18">
     <!-- x(t) -->
     <g transform="translate(18.845 147.261094) rotate(-90) scale(0.1 -0.1)">
      <defs>
       <path id="DejaVuSans-78" d="M 3513 3500 
L 2247 1797 
L 3578 0 
L 2900 0 
L 1881 1375 
L 863 0 
L 184 0 
L 1544 1831 
L 300 3500 
L 978 3500 
L 1906 2253 
L 2834 3500 
L 3513 3500 
z
" transform="scale(0.015625)"/>
      </defs>
      <use xlink:href="#DejaVuSans-78"/>
      <use xlink:href="#DejaVuSans-28" x="59.179688"/>
      <use xlink:href="#DejaVuSans-74" x="98.193359"/>
      <use xlink:href="#DejaVuSans-29" x="137.402344"/>
     </g>
    </g>
   </g>
   <g id="line2d_17">
    <path d="M 62.57 127.14 
L 65.088331 127.137676 
L 67.606662 127.130514 
L 70.124993 127.118203 
L 72.643324 127.100396 
L 75.161655 127.076712 
L 77.679986 127.046721 
L 80.198317 127.009411 
L 82.716648 126.964407 
L 85.234978 126.911598 
L 87.753309 126.850652 
L 90.27164 126.781021 
L 92.789971 126.701934 
L 95.308302 126.612402 
L 97.826633 126.511217 
L 100.344964 126.39695 
L 102.863295 126.267953 
L 105.381626 126.12236 
L 107.899957 125.958082 
L 110.418288 125.772814 
L 112.936619 125.56403 
L 115.45495 125.328984 
L 117.973281 125.064711 
L 120.491612 124.766702 
L 123.009943 124.42865 
L 125.528274 124.043316 
L 128.046605 123.601428 
L 130.564935 123.090866 
L 133.083266 122.496573 
L 135.601597 121.796144 
L 138.119928 120.957947 
L 140.638259 119.936686 
L 143.15659 118.659525 
L 145.674921 117.001888 
L 148.193252 114.729428 
L 150.711583 111.290814 
L 153.229914 104.839136 
" clip-path="url(#pa16a46f82a)" style="fill: none; stroke: #1f77b4; stroke-width: 1.5; stroke-linecap: square"/>
   </g>
   <g id="line2d_18">
    <path d="M 62.57 93.24 
L 65.088331 93.217933 
L 67.606662 93.153811 
L 70.124993 93.050274 
L 72.643324 92.909327 
L 75.161655 92.732354 
L 77.679986 92.520237 
L 80.198317 92.273255 
L 82.716648 91.991352 
L 85.234978 91.674197 
L 87.753309 91.321186 
L 90.27164 90.931438 
L 92.789971 90.503799 
L 95.308302 90.036837 
L 97.826633 89.528848 
L 100.344964 88.97768 
L 102.863295 88.379453 
L 105.381626 87.731844 
L 107.899957 87.032275 
L 110.418288 86.277254 
L 112.936619 85.462371 
L 115.45495 84.5823 
L 117.973281 83.630799 
L 120.491612 82.600708 
L 123.009943 81.483952 
L 125.528274 80.271538 
L 128.046605 78.95356 
L 130.564935 77.519191 
L 133.083266 75.951685 
L 135.601597 74.217416 
L 138.119928 72.316266 
L 140.638259 70.241795 
L 143.15659 67.974669 
L 145.674921 65.48266 
L 148.193252 62.720647 
L 150.711583 59.630614 
L 153.229914 56.141652 
L 155.748245 52.169958 
L 158.266576 47.618837 
L 160.784907 42.378696 
L 163.303238 36.326705 
L 165.821569 29.248071 
L 168.3399 20.874461 
L 170.858231 10.806128 
L 173.26089 -1 
" clip-path="url(#pa16a46f82a)" style="fill: none; stroke: #ff7f0e; stroke-width: 1.5; stroke-linecap: square"/>
   </g>
   <g id="line2d_19">
    <path d="M 62.57 161.04 
L 67.606662 160.957601 
L 75.161655 160.593808 
L 85.234978 159.833433 
L 102.863295 158.216623 
L 128.046605 155.89009 
L 145.674921 154.471211 
L 163.303238 153.252691 
L 183.449885 152.100997 
L 203.596533 151.179822 
L 226.261511 150.379241 
L 251.444821 149.73566 
L 279.146461 149.271204 
L 309.366433 149.002976 
L 344.623066 148.92363 
L 392.471354 149.053908 
L 573.791182 149.810134 
L 677.04275 149.81097 
L 815.550952 149.743812 
L 815.550952 149.743812 
" clip-path="url(#pa16a46f82a)" style="fill: none; stroke: #2ca02c; stroke-width: 1.5; stroke-linecap: square"/>
   </g>
   <g id="line2d_20">
    <path d="M 62.57 110.19 
L 65.088331 109.898346 
L 67.606662 109.589453 
L 70.124993 109.261954 
L 72.643324 108.914315 
L 75.161655 108.544824 
L 77.679986 108.151452 
L 80.198317 107.73124 
L 82.716648 107.282622 
L 85.234978 106.803637 
L 87.753309 106.291505 
L 90.27164 105.742629 
L 92.789971 105.152591 
L 95.308302 104.516152 
L 97.826633 103.827257 
L 100.344964 103.07903 
L 102.863295 102.263775 
L 105.381626 101.372978 
L 107.899957 100.396983 
L 110.418288 99.321431 
L 112.936619 98.130358 
L 115.45495 96.802089 
L 117.973281 95.30796 
L 120.491612 93.611543 
L 123.009943 91.660197 
L 125.528274 89.398313 
L 128.046605 86.71287 
L 130.564935 83.419741 
L 133.083266 79.237714 
L 135.601597 73.533732 
L 138.119928 64.460819 
L 140.638259 30.876212 
" clip-path="url(#pa16a46f82a)" style="fill: none; stroke: #d62728; stroke-width: 1.5; stroke-linecap: square"/>
   </g>
   <g id="line2d_21">
    <path d="M 62.57 183.64 
L 67.606662 180.208987 
L 72.643324 177.151692 
L 77.679986 174.430784 
L 82.716648 172.005356 
L 87.753309 169.836977 
L 92.789971 167.89248 
L 97.826633 166.143986 
L 102.863295 164.568904 
L 110.418288 162.48439 
L 117.973281 160.67839 
L 125.528274 159.105216 
L 133.083266 157.727023 
L 143.15659 156.141949 
L 153.229914 154.79743 
L 163.303238 153.650547 
L 175.894892 152.44585 
L 188.486547 151.448972 
L 203.596533 150.476963 
L 221.224849 149.596647 
L 238.853166 148.935214 
L 258.999814 148.395254 
L 281.664792 148.016258 
L 306.848102 147.831567 
L 334.549742 147.848687 
L 367.288044 148.086098 
L 415.136332 148.686369 
L 483.131268 149.509114 
L 530.979556 149.839002 
L 583.864505 149.969121 
L 661.932765 149.905761 
L 815.550952 149.72864 
L 815.550952 149.72864 
" clip-path="url(#pa16a46f82a)" style="fill: none; stroke: #9467bd; stroke-width: 1.5; stroke-linecap: square"/>
   </g>
   <g id="line2d_22">
    <path d="M 62.57 206.24 
L 72.643324 194.99279 
L 77.679986 189.993454 
L 82.716648 185.587426 
L 87.753309 181.72667 
L 92.789971 178.345643 
L 97.826633 175.376373 
L 102.863295 172.756916 
L 107.899957 170.435936 
L 112.936619 168.369919 
L 117.973281 166.523117 
L 123.009943 164.86691 
L 130.564935 162.682787 
L 138.119928 160.802295 
L 145.674921 159.172918 
L 153.229914 157.751472 
L 163.303238 156.122494 
L 173.376562 154.744734 
L 183.449885 153.57317 
L 196.04154 152.346117 
L 208.633195 151.333516 
L 223.74318 150.349189 
L 241.371497 149.459009 
L 258.999814 148.791833 
L 279.146461 148.24929 
L 301.81144 147.873802 
L 326.994749 147.695827 
L 354.69639 147.725271 
L 387.434692 147.987987 
L 437.801311 148.668677 
L 500.759584 149.478688 
L 546.089541 149.828563 
L 596.45616 149.982766 
L 664.451096 149.943784 
L 815.550952 149.737901 
L 815.550952 149.737901 
" clip-path="url(#pa16a46f82a)" style="fill: none; stroke: #8c564b; stroke-width: 1.5; stroke-linecap: square"/>
   </g>
   <g id="line2d_23">
    <path d="M 62.57 149.74 
L 75.161655 148.712061 
L 90.27164 147.718249 
L 105.381626 146.93573 
L 123.009943 146.241476 
L 143.15659 145.682523 
L 165.821569 145.299943 
L 188.486547 145.146631 
L 211.151526 145.20541 
L 236.334835 145.503086 
L 261.518145 146.021489 
L 289.219785 146.807726 
L 374.843037 149.405454 
L 402.544677 149.935385 
L 432.764649 150.272192 
L 465.502951 150.403133 
L 508.314577 150.331287 
L 722.372707 149.678891 
L 815.550952 149.687229 
L 815.550952 149.687229 
" clip-path="url(#pa16a46f82a)" style="fill: none; stroke: #e377c2; stroke-width: 1.5; stroke-linecap: square"/>
   </g>
   <g id="line2d_24">
    <path d="M 62.57 217.54 
L 67.606662 209.469932 
L 70.124993 205.644066 
L 72.643324 202.051516 
L 75.161655 198.710512 
L 77.679986 195.618259 
L 80.198317 192.760929 
L 82.716648 190.120739 
L 85.234978 187.680289 
L 87.753309 185.422789 
L 90.27164 183.332032 
L 95.308302 179.588037 
L 100.344964 176.342513 
L 105.381626 173.510211 
L 110.418288 171.022221 
L 115.45495 168.82459 
L 120.491612 166.870917 
L 125.528274 165.127818 
L 130.564935 163.566745 
L 138.119928 161.512672 
L 145.674921 159.743147 
L 153.229914 158.206249 
L 160.784907 156.864221 
L 170.858231 155.328621 
L 180.931554 154.031607 
L 193.523209 152.678787 
L 206.114864 151.567509 
L 221.224849 150.490498 
L 236.334835 149.638996 
L 253.963152 148.873685 
L 274.109799 148.246795 
L 294.256447 147.836213 
L 316.921425 147.584206 
L 342.104735 147.518059 
L 369.806375 147.663129 
L 407.581339 148.10624 
L 530.979556 149.740079 
L 573.791182 149.964708 
L 629.194462 150.009186 
L 747.556017 149.815611 
L 815.550952 149.738627 
L 815.550952 149.738627 
" clip-path="url(#pa16a46f82a)" style="fill: none; stroke: #7f7f7f; stroke-width: 1.5; stroke-linecap: square"/>
   </g>
   <g id="line2d_25">
    <path d="M 62.57 138.44 
L 815.550952 138.44 
L 815.550952 138.44 
" clip-path="url(#pa16a46f82a)" style="fill: none; stroke: #bcbd22; stroke-width: 1.5; stroke-linecap: square"/>
   </g>
   <g id="line2d_26">
    <path d="M 62.57 127.14 
L 67.606662 128.872319 
L 72.643324 130.293609 
L 77.679986 131.488177 
L 82.716648 132.501446 
L 90.27164 133.754363 
L 97.826633 134.767095 
L 105.381626 135.58252 
L 115.45495 136.422907 
L 125.528274 137.051457 
L 138.119928 137.600737 
L 153.229914 138.013949 
L 170.858231 138.269273 
L 198.559871 138.411746 
L 269.073137 138.439986 
L 815.550952 138.439997 
L 815.550952 138.439997 
" clip-path="url(#pa16a46f82a)" style="fill: none; stroke: #17becf; stroke-width: 1.5; stroke-linecap: square"/>
   </g>
   <g id="line2d_27">
    <path d="M 62.57 138.44 
L 815.550952 138.44 
L 815.550952 138.44 
" clip-path="url(#pa16a46f82a)" style="fill: none; stroke: #1f77b4; stroke-width: 1.5; stroke-linecap: square"/>
   </g>
   <g id="line2d_28">
    <path d="M 62.57 149.74 
L 853.2 149.74 
" clip-path="url(#pa16a46f82a)" style="fill: none; stroke-dasharray: 5.55,2.4; stroke-dashoffset: 0; stroke: #000000; stroke-width: 1.5"/>
   </g>
   <g id="patch_3">
    <path d="M 62.57 251.44 
L 62.57 25.44 
" style="fill: none; stroke: #000000; stroke-width: 0.8; stroke-linejoin: miter; stroke-linecap: square"/>
   </g>
   <g id="patch_4">
    <path d="M 853.2 251.44 
L 853.2 25.44 
" style="fill: none; stroke: #000000; stroke-width: 0.8; stroke-linejoin: miter; stroke-linecap: square"/>
   </g>
   <g id="patch_5">
    <path d="M 62.57 251.44 
L 853.2 251.44 
" style="fill: none; stroke: #000000; stroke-width: 0.8; stroke-linejoin: miter; stroke-linecap: square"/>
   </g>
   <g id="patch_6">
    <path d="M 62.57 25.44 
L 853.2 25.44 
" style="fill: none; stroke: #000000; stroke-width: 0.8; stroke-linejoin: miter; stroke-linecap: square"/>
   </g>
   <g id="text_19">
    <!-- (a) -->
    <g transform="translate(449.52625 19.44) scale(0.12 -0.12)">
     <defs>
      <path id="DejaVuSans-61" d="M 2194 1759 
Q 1497 1759 1228 1600 
Q 959 1441 959 1056 
Q 959 750 1161 570 
Q 1363 391 1709 391 
Q 2188 391 2477 730 
Q 2766 1069 2766 1631 
L 2766 1759 
L 2194 1759 
z
M 3341 1997 
L 3341 0 
L 2766 0 
L 2766 531 
Q 2569 213 2275 61 
Q 1981 -91 1556 -91 
Q 1019 -91 701 211 
Q 384 513 384 1019 
Q 384 1609 779 1909 
Q 1175 2209 1959 2209 
L 2766 2209 
L 2766 2266 
Q 2766 2663 2505 2880 
Q 2244 3097 1772 3097 
Q 1472 3097 1187 3025 
Q 903 2953 641 2809 
L 641 3341 
Q 956 3463 1253 3523 
Q 1550 3584 1831 3584 
Q 2591 3584 2966 3190 
Q 3341 2797 3341 1997 
z
" transform="scale(0.015625)"/>
     </defs>
     <use xlink:href="#DejaVuSans-28"/>
     <use xlink:href="#DejaVuSans-61" x="39.013672"/>
     <use xlink:href="#DejaVuSans-29" x="100.292969"/>
    </g>
   </g>
   <g id="legend_1">
    <g id="patch_7">
     <path d="M 741.784375 209.5775 
L 846.2 209.5775 
Q 848.2 209.5775 848.2 207.5775 
L 848.2 32.44 
Q 848.2 30.44 846.2 30.44 
L 741.784375 30.44 
Q 739.784375 30.44 739.784375 32.44 
L 739.784375 207.5775 
Q 739.784375 209.5775 741.784375 209.5775 
z
" style="fill: #ffffff; opacity: 0.8; stroke: #cccccc; stroke-linejoin: miter"/>
    </g>
    <g id="line2d_29">
     <path d="M 743.784375 38.538437 
L 753.784375 38.538437 
L 763.784375 38.538437 
" style="fill: none; stroke: #1f77b4; stroke-width: 1.5; stroke-linecap: square"/>
    </g>
    <g id="text_20">
     <!-- IC 1: (1, 1) -->
     <g transform="translate(771.784375 42.038437) scale(0.1 -0.1)">
      <defs>
       <path id="DejaVuSans-49" d="M 628 4666 
L 1259 4666 
L 1259 0 
L 628 0 
L 628 4666 
z
" transform="scale(0.015625)"/>
       <path id="DejaVuSans-43" d="M 4122 4306 
L 4122 3641 
Q 3803 3938 3442 4084 
Q 3081 4231 2675 4231 
Q 1875 4231 1450 3742 
Q 1025 3253 1025 2328 
Q 1025 1406 1450 917 
Q 1875 428 2675 428 
Q 3081 428 3442 575 
Q 3803 722 4122 1019 
L 4122 359 
Q 3791 134 3420 21 
Q 3050 -91 2638 -91 
Q 1578 -91 968 557 
Q 359 1206 359 2328 
Q 359 3453 968 4101 
Q 1578 4750 2638 4750 
Q 3056 4750 3426 4639 
Q 3797 4528 4122 4306 
z
" transform="scale(0.015625)"/>
       <path id="DejaVuSans-3a" d="M 750 794 
L 1409 794 
L 1409 0 
L 750 0 
L 750 794 
z
M 750 3309 
L 1409 3309 
L 1409 2516 
L 750 2516 
L 750 3309 
z
" transform="scale(0.015625)"/>
       <path id="DejaVuSans-2c" d="M 750 794 
L 1409 794 
L 1409 256 
L 897 -744 
L 494 -744 
L 750 256 
L 750 794 
z
" transform="scale(0.015625)"/>
      </defs>
      <use xlink:href="#DejaVuSans-49"/>
      <use xlink:href="#DejaVuSans-43" x="29.492188"/>
      <use xlink:href="#DejaVuSans-20" x="99.316406"/>
      <use xlink:href="#DejaVuSans-31" x="131.103516"/>
      <use xlink:href="#DejaVuSans-3a" x="194.726562"/>
      <use xlink:href="#DejaVuSans-20" x="228.417969"/>
      <use xlink:href="#DejaVuSans-28" x="260.205078"/>
      <use xlink:href="#DejaVuSans-31" x="299.21875"/>
      <use xlink:href="#DejaVuSans-2c" x="362.841797"/>
      <use xlink:href="#DejaVuSans-20" x="394.628906"/>
      <use xlink:href="#DejaVuSans-31" x="426.416016"/>
      <use xlink:href="#DejaVuSans-29" x="490.039062"/>
     </g>
    </g>
    <g id="line2d_30">
     <path d="M 743.784375 53.216562 
L 753.784375 53.216562 
L 763.784375 53.216562 
" style="fill: none; stroke: #ff7f0e; stroke-width: 1.5; stroke-linecap: square"/>
    </g>
    <g id="text_21">
     <!-- IC 2: (4, -2) -->
     <g transform="translate(771.784375 56.716562) scale(0.1 -0.1)">
      <defs>
       <path id="DejaVuSans-34" d="M 2419 4116 
L 825 1625 
L 2419 1625 
L 2419 4116 
z
M 2253 4666 
L 3047 4666 
L 3047 1625 
L 3713 1625 
L 3713 1100 
L 3047 1100 
L 3047 0 
L 2419 0 
L 2419 1100 
L 313 1100 
L 313 1709 
L 2253 4666 
z
" transform="scale(0.015625)"/>
       <path id="DejaVuSans-2d" d="M 313 2009 
L 1997 2009 
L 1997 1497 
L 313 1497 
L 313 2009 
z
" transform="scale(0.015625)"/>
      </defs>
      <use xlink:href="#DejaVuSans-49"/>
      <use xlink:href="#DejaVuSans-43" x="29.492188"/>
      <use xlink:href="#DejaVuSans-20" x="99.316406"/>
      <use xlink:href="#DejaVuSans-32" x="131.103516"/>
      <use xlink:href="#DejaVuSans-3a" x="194.726562"/>
      <use xlink:href="#DejaVuSans-20" x="228.417969"/>
      <use xlink:href="#DejaVuSans-28" x="260.205078"/>
      <use xlink:href="#DejaVuSans-34" x="299.21875"/>
      <use xlink:href="#DejaVuSans-2c" x="362.841797"/>
      <use xlink:href="#DejaVuSans-20" x="394.628906"/>
      <use xlink:href="#DejaVuSans-2d" x="426.416016"/>
      <use xlink:href="#DejaVuSans-32" x="462.5"/>
      <use xlink:href="#DejaVuSans-29" x="526.123047"/>
     </g>
    </g>
    <g id="line2d_31">
     <path d="M 743.784375 67.894687 
L 753.784375 67.894687 
L 763.784375 67.894687 
" style="fill: none; stroke: #2ca02c; stroke-width: 1.5; stroke-linecap: square"/>
    </g>
    <g id="text_22">
     <!-- IC 3: (-2, 4) -->
     <g transform="translate(771.784375 71.394687) scale(0.1 -0.1)">
      <use xlink:href="#DejaVuSans-49"/>
      <use xlink:href="#DejaVuSans-43" x="29.492188"/>
      <use xlink:href="#DejaVuSans-20" x="99.316406"/>
      <use xlink:href="#DejaVuSans-33" x="131.103516"/>
      <use xlink:href="#DejaVuSans-3a" x="194.726562"/>
      <use xlink:href="#DejaVuSans-20" x="228.417969"/>
      <use xlink:href="#DejaVuSans-28" x="260.205078"/>
      <use xlink:href="#DejaVuSans-2d" x="299.21875"/>
      <use xlink:href="#DejaVuSans-32" x="335.302734"/>
      <use xlink:href="#DejaVuSans-2c" x="398.925781"/>
      <use xlink:href="#DejaVuSans-20" x="430.712891"/>
      <use xlink:href="#DejaVuSans-34" x="462.5"/>
      <use xlink:href="#DejaVuSans-29" x="526.123047"/>
     </g>
    </g>
    <g id="line2d_32">
     <path d="M 743.784375 82.572812 
L 753.784375 82.572812 
L 763.784375 82.572812 
" style="fill: none; stroke: #d62728; stroke-width: 1.5; stroke-linecap: square"/>
    </g>
    <g id="text_23">
     <!-- IC 4: (2.5, 0.5) -->
     <g transform="translate(771.784375 86.072812) scale(0.1 -0.1)">
      <use xlink:href="#DejaVuSans-49"/>
      <use xlink:href="#DejaVuSans-43" x="29.492188"/>
      <use xlink:href="#DejaVuSans-20" x="99.316406"/>
      <use xlink:href="#DejaVuSans-34" x="131.103516"/>
      <use xlink:href="#DejaVuSans-3a" x="194.726562"/>
      <use xlink:href="#DejaVuSans-20" x="228.417969"/>
      <use xlink:href="#DejaVuSans-28" x="260.205078"/>
      <use xlink:href="#DejaVuSans-32" x="299.21875"/>
      <use xlink:href="#DejaVuSans-2e" x="362.841797"/>
      <use xlink:href="#DejaVuSans-35" x="394.628906"/>
      <use xlink:href="#DejaVuSans-2c" x="458.251953"/>
      <use xlink:href="#DejaVuSans-20" x="490.039062"/>
      <use xlink:href="#DejaVuSans-30" x="521.826172"/>
      <use xlink:href="#DejaVuSans-2e" x="585.449219"/>
      <use xlink:href="#DejaVuSans-35" x="617.236328"/>
      <use xlink:href="#DejaVuSans-29" x="680.859375"/>
     </g>
    </g>
    <g id="line2d_33">
     <path d="M 743.784375 97.250937 
L 753.784375 97.250937 
L 763.784375 97.250937 
" style="fill: none; stroke: #9467bd; stroke-width: 1.5; stroke-linecap: square"/>
    </g>
    <g id="text_24">
     <!-- IC 5: (-4, 2) -->
     <g transform="translate(771.784375 100.750937) scale(0.1 -0.1)">
      <use xlink:href="#DejaVuSans-49"/>
      <use xlink:href="#DejaVuSans-43" x="29.492188"/>
      <use xlink:href="#DejaVuSans-20" x="99.316406"/>
      <use xlink:href="#DejaVuSans-35" x="131.103516"/>
      <use xlink:href="#DejaVuSans-3a" x="194.726562"/>
      <use xlink:href="#DejaVuSans-20" x="228.417969"/>
      <use xlink:href="#DejaVuSans-28" x="260.205078"/>
      <use xlink:href="#DejaVuSans-2d" x="299.21875"/>
      <use xlink:href="#DejaVuSans-34" x="335.302734"/>
      <use xlink:href="#DejaVuSans-2c" x="398.925781"/>
      <use xlink:href="#DejaVuSans-20" x="430.712891"/>
      <use xlink:href="#DejaVuSans-32" x="462.5"/>
      <use xlink:href="#DejaVuSans-29" x="526.123047"/>
     </g>
    </g>
    <g id="line2d_34">
     <path d="M 743.784375 111.929062 
L 753.784375 111.929062 
L 763.784375 111.929062 
" style="fill: none; stroke: #8c564b; stroke-width: 1.5; stroke-linecap: square"/>
    </g>
    <g id="text_25">
     <!-- IC 6: (-6, 4) -->
     <g transform="translate(771.784375 115.429062) scale(0.1 -0.1)">
      <defs>
       <path id="DejaVuSans-36" d="M 2113 2584 
Q 1688 2584 1439 2293 
Q 1191 2003 1191 1497 
Q 1191 994 1439 701 
Q 1688 409 2113 409 
Q 2538 409 2786 701 
Q 3034 994 3034 1497 
Q 3034 2003 2786 2293 
Q 2538 2584 2113 2584 
z
M 3366 4563 
L 3366 3988 
Q 3128 4100 2886 4159 
Q 2644 4219 2406 4219 
Q 1781 4219 1451 3797 
Q 1122 3375 1075 2522 
Q 1259 2794 1537 2939 
Q 1816 3084 2150 3084 
Q 2853 3084 3261 2657 
Q 3669 2231 3669 1497 
Q 3669 778 3244 343 
Q 2819 -91 2113 -91 
Q 1303 -91 875 529 
Q 447 1150 447 2328 
Q 447 3434 972 4092 
Q 1497 4750 2381 4750 
Q 2619 4750 2861 4703 
Q 3103 4656 3366 4563 
z
" transform="scale(0.015625)"/>
      </defs>
      <use xlink:href="#DejaVuSans-49"/>
      <use xlink:href="#DejaVuSans-43" x="29.492188"/>
      <use xlink:href="#DejaVuSans-20" x="99.316406"/>
      <use xlink:href="#DejaVuSans-36" x="131.103516"/>
      <use xlink:href="#DejaVuSans-3a" x="194.726562"/>
      <use xlink:href="#DejaVuSans-20" x="228.417969"/>
      <use xlink:href="#DejaVuSans-28" x="260.205078"/>
      <use xlink:href="#DejaVuSans-2d" x="299.21875"/>
      <use xlink:href="#DejaVuSans-36" x="335.302734"/>
      <use xlink:href="#DejaVuSans-2c" x="398.925781"/>
      <use xlink:href="#DejaVuSans-20" x="430.712891"/>
      <use xlink:href="#DejaVuSans-34" x="462.5"/>
      <use xlink:href="#DejaVuSans-29" x="526.123047"/>
     </g>
    </g>
    <g id="line2d_35">
     <path d="M 743.784375 126.607187 
L 753.784375 126.607187 
L 763.784375 126.607187 
" style="fill: none; stroke: #e377c2; stroke-width: 1.5; stroke-linecap: square"/>
    </g>
    <g id="text_26">
     <!-- IC 7: (-1, 1) -->
     <g transform="translate(771.784375 130.107187) scale(0.1 -0.1)">
      <use xlink:href="#DejaVuSans-49"/>
      <use xlink:href="#DejaVuSans-43" x="29.492188"/>
      <use xlink:href="#DejaVuSans-20" x="99.316406"/>
      <use xlink:href="#DejaVuSans-37" x="131.103516"/>
      <use xlink:href="#DejaVuSans-3a" x="194.726562"/>
      <use xlink:href="#DejaVuSans-20" x="228.417969"/>
      <use xlink:href="#DejaVuSans-28" x="260.205078"/>
      <use xlink:href="#DejaVuSans-2d" x="299.21875"/>
      <use xlink:href="#DejaVuSans-31" x="335.302734"/>
      <use xlink:href="#DejaVuSans-2c" x="398.925781"/>
      <use xlink:href="#DejaVuSans-20" x="430.712891"/>
      <use xlink:href="#DejaVuSans-31" x="462.5"/>
      <use xlink:href="#DejaVuSans-29" x="526.123047"/>
     </g>
    </g>
    <g id="line2d_36">
     <path d="M 743.784375 141.285312 
L 753.784375 141.285312 
L 763.784375 141.285312 
" style="fill: none; stroke: #7f7f7f; stroke-width: 1.5; stroke-linecap: square"/>
    </g>
    <g id="text_27">
     <!-- IC 8: (-7, 4) -->
     <g transform="translate(771.784375 144.785312) scale(0.1 -0.1)">
      <defs>
       <path id="DejaVuSans-38" d="M 2034 2216 
Q 1584 2216 1326 1975 
Q 1069 1734 1069 1313 
Q 1069 891 1326 650 
Q 1584 409 2034 409 
Q 2484 409 2743 651 
Q 3003 894 3003 1313 
Q 3003 1734 2745 1975 
Q 2488 2216 2034 2216 
z
M 1403 2484 
Q 997 2584 770 2862 
Q 544 3141 544 3541 
Q 544 4100 942 4425 
Q 1341 4750 2034 4750 
Q 2731 4750 3128 4425 
Q 3525 4100 3525 3541 
Q 3525 3141 3298 2862 
Q 3072 2584 2669 2484 
Q 3125 2378 3379 2068 
Q 3634 1759 3634 1313 
Q 3634 634 3220 271 
Q 2806 -91 2034 -91 
Q 1263 -91 848 271 
Q 434 634 434 1313 
Q 434 1759 690 2068 
Q 947 2378 1403 2484 
z
M 1172 3481 
Q 1172 3119 1398 2916 
Q 1625 2713 2034 2713 
Q 2441 2713 2670 2916 
Q 2900 3119 2900 3481 
Q 2900 3844 2670 4047 
Q 2441 4250 2034 4250 
Q 1625 4250 1398 4047 
Q 1172 3844 1172 3481 
z
" transform="scale(0.015625)"/>
      </defs>
      <use xlink:href="#DejaVuSans-49"/>
      <use xlink:href="#DejaVuSans-43" x="29.492188"/>
      <use xlink:href="#DejaVuSans-20" x="99.316406"/>
      <use xlink:href="#DejaVuSans-38" x="131.103516"/>
      <use xlink:href="#DejaVuSans-3a" x="194.726562"/>
      <use xlink:href="#DejaVuSans-20" x="228.417969"/>
      <use xlink:href="#DejaVuSans-28" x="260.205078"/>
      <use xlink:href="#DejaVuSans-2d" x="299.21875"/>
      <use xlink:href="#DejaVuSans-37" x="335.302734"/>
      <use xlink:href="#DejaVuSans-2c" x="398.925781"/>
      <use xlink:href="#DejaVuSans-20" x="430.712891"/>
      <use xlink:href="#DejaVuSans-34" x="462.5"/>
      <use xlink:href="#DejaVuSans-29" x="526.123047"/>
     </g>
    </g>
    <g id="line2d_37">
     <path d="M 743.784375 155.963437 
L 753.784375 155.963437 
L 763.784375 155.963437 
" style="fill: none; stroke: #bcbd22; stroke-width: 1.5; stroke-linecap: square"/>
    </g>
    <g id="text_28">
     <!-- IC 9: (0, 0) -->
     <g transform="translate(771.784375 159.463437) scale(0.1 -0.1)">
      <defs>
       <path id="DejaVuSans-39" d="M 703 97 
L 703 672 
Q 941 559 1184 500 
Q 1428 441 1663 441 
Q 2288 441 2617 861 
Q 2947 1281 2994 2138 
Q 2813 1869 2534 1725 
Q 2256 1581 1919 1581 
Q 1219 1581 811 2004 
Q 403 2428 403 3163 
Q 403 3881 828 4315 
Q 1253 4750 1959 4750 
Q 2769 4750 3195 4129 
Q 3622 3509 3622 2328 
Q 3622 1225 3098 567 
Q 2575 -91 1691 -91 
Q 1453 -91 1209 -44 
Q 966 3 703 97 
z
M 1959 2075 
Q 2384 2075 2632 2365 
Q 2881 2656 2881 3163 
Q 2881 3666 2632 3958 
Q 2384 4250 1959 4250 
Q 1534 4250 1286 3958 
Q 1038 3666 1038 3163 
Q 1038 2656 1286 2365 
Q 1534 2075 1959 2075 
z
" transform="scale(0.015625)"/>
      </defs>
      <use xlink:href="#DejaVuSans-49"/>
      <use xlink:href="#DejaVuSans-43" x="29.492188"/>
      <use xlink:href="#DejaVuSans-20" x="99.316406"/>
      <use xlink:href="#DejaVuSans-39" x="131.103516"/>
      <use xlink:href="#DejaVuSans-3a" x="194.726562"/>
      <use xlink:href="#DejaVuSans-20" x="228.417969"/>
      <use xlink:href="#DejaVuSans-28" x="260.205078"/>
      <use xlink:href="#DejaVuSans-30" x="299.21875"/>
      <use xlink:href="#DejaVuSans-2c" x="362.841797"/>
      <use xlink:href="#DejaVuSans-20" x="394.628906"/>
      <use xlink:href="#DejaVuSans-30" x="426.416016"/>
      <use xlink:href="#DejaVuSans-29" x="490.039062"/>
     </g>
    </g>
    <g id="line2d_38">
     <path d="M 743.784375 170.641562 
L 753.784375 170.641562 
L 763.784375 170.641562 
" style="fill: none; stroke: #17becf; stroke-width: 1.5; stroke-linecap: square"/>
    </g>
    <g id="text_29">
     <!-- IC 10: (1, -7.5) -->
     <g transform="translate(771.784375 174.141562) scale(0.1 -0.1)">
      <use xlink:href="#DejaVuSans-49"/>
      <use xlink:href="#DejaVuSans-43" x="29.492188"/>
      <use xlink:href="#DejaVuSans-20" x="99.316406"/>
      <use xlink:href="#DejaVuSans-31" x="131.103516"/>
      <use xlink:href="#DejaVuSans-30" x="194.726562"/>
      <use xlink:href="#DejaVuSans-3a" x="258.349609"/>
      <use xlink:href="#DejaVuSans-20" x="292.041016"/>
      <use xlink:href="#DejaVuSans-28" x="323.828125"/>
      <use xlink:href="#DejaVuSans-31" x="362.841797"/>
      <use xlink:href="#DejaVuSans-2c" x="426.464844"/>
      <use xlink:href="#DejaVuSans-20" x="458.251953"/>
      <use xlink:href="#DejaVuSans-2d" x="490.039062"/>
      <use xlink:href="#DejaVuSans-37" x="526.123047"/>
      <use xlink:href="#DejaVuSans-2e" x="589.746094"/>
      <use xlink:href="#DejaVuSans-35" x="621.533203"/>
      <use xlink:href="#DejaVuSans-29" x="685.15625"/>
     </g>
    </g>
    <g id="line2d_39">
     <path d="M 743.784375 185.319687 
L 753.784375 185.319687 
L 763.784375 185.319687 
" style="fill: none; stroke: #1f77b4; stroke-width: 1.5; stroke-linecap: square"/>
    </g>
    <g id="text_30">
     <!-- IC 11: (0, 2) -->
     <g transform="translate(771.784375 188.819687) scale(0.1 -0.1)">
      <use xlink:href="#DejaVuSans-49"/>
      <use xlink:href="#DejaVuSans-43" x="29.492188"/>
      <use xlink:href="#DejaVuSans-20" x="99.316406"/>
      <use xlink:href="#DejaVuSans-31" x="131.103516"/>
      <use xlink:href="#DejaVuSans-31" x="194.726562"/>
      <use xlink:href="#DejaVuSans-3a" x="258.349609"/>
      <use xlink:href="#DejaVuSans-20" x="292.041016"/>
      <use xlink:href="#DejaVuSans-28" x="323.828125"/>
      <use xlink:href="#DejaVuSans-30" x="362.841797"/>
      <use xlink:href="#DejaVuSans-2c" x="426.464844"/>
      <use xlink:href="#DejaVuSans-20" x="458.251953"/>
      <use xlink:href="#DejaVuSans-32" x="490.039062"/>
      <use xlink:href="#DejaVuSans-29" x="553.662109"/>
     </g>
    </g>
    <g id="line2d_40">
     <path d="M 743.784375 199.997812 
L 753.784375 199.997812 
L 763.784375 199.997812 
" style="fill: none; stroke-dasharray: 5.55,2.4; stroke-dashoffset: 0; stroke: #000000; stroke-width: 1.5"/>
    </g>
    <g id="text_31">
     <!-- $x = -1 $ -->
     <g transform="translate(771.784375 203.497812) scale(0.1 -0.1)">
      <defs>
       <path id="DejaVuSans-Oblique-78" d="M 3841 3500 
L 2234 1784 
L 3219 0 
L 2559 0 
L 1819 1388 
L 531 0 
L -166 0 
L 1556 1844 
L 641 3500 
L 1300 3500 
L 1972 2234 
L 3144 3500 
L 3841 3500 
z
" transform="scale(0.015625)"/>
       <path id="DejaVuSans-3d" d="M 678 2906 
L 4684 2906 
L 4684 2381 
L 678 2381 
L 678 2906 
z
M 678 1631 
L 4684 1631 
L 4684 1100 
L 678 1100 
L 678 1631 
z
" transform="scale(0.015625)"/>
      </defs>
      <use xlink:href="#DejaVuSans-Oblique-78" transform="translate(0 0.09375)"/>
      <use xlink:href="#DejaVuSans-3d" transform="translate(78.662109 0.09375)"/>
      <use xlink:href="#DejaVuSans-2212" transform="translate(201.416016 0.09375)"/>
      <use xlink:href="#DejaVuSans-31" transform="translate(304.6875 0.09375)"/>
     </g>
    </g>
   </g>
  </g>
  <g id="axes_2">
   <g id="patch_8">
    <path d="M 62.57 534.04 
L 853.2 534.04 
L 853.2 308.04 
L 62.57 308.04 
z
" style="fill: #ffffff"/>
   </g>
   <g id="matplotlib.axis_3">
    <g id="xtick_8">
     <g id="line2d_41">
      <g>
       <use xlink:href="#m62632d20e6" x="62.57" y="534.04" style="stroke: #000000; stroke-width: 0.8"/>
      </g>
     </g>
     <g id="text_32">
      <!-- 0.0 -->
      <g transform="translate(54.618438 548.638438) scale(0.1 -0.1)">
       <use xlink:href="#DejaVuSans-30"/>
       <use xlink:href="#DejaVuSans-2e" x="63.623047"/>
       <use xlink:href="#DejaVuSans-30" x="95.410156"/>
      </g>
     </g>
    </g>
    <g id="xtick_9">
     <g id="line2d_42">
      <g>
       <use xlink:href="#m62632d20e6" x="188.066825" y="534.04" style="stroke: #000000; stroke-width: 0.8"/>
      </g>
     </g>
     <g id="text_33">
      <!-- 0.5 -->
      <g transform="translate(180.115263 548.638438) scale(0.1 -0.1)">
       <use xlink:href="#DejaVuSans-30"/>
       <use xlink:href="#DejaVuSans-2e" x="63.623047"/>
       <use xlink:href="#DejaVuSans-35" x="95.410156"/>
      </g>
     </g>
    </g>
    <g id="xtick_10">
     <g id="line2d_43">
      <g>
       <use xlink:href="#m62632d20e6" x="313.563651" y="534.04" style="stroke: #000000; stroke-width: 0.8"/>
      </g>
     </g>
     <g id="text_34">
      <!-- 1.0 -->
      <g transform="translate(305.612088 548.638438) scale(0.1 -0.1)">
       <use xlink:href="#DejaVuSans-31"/>
       <use xlink:href="#DejaVuSans-2e" x="63.623047"/>
       <use xlink:href="#DejaVuSans-30" x="95.410156"/>
      </g>
     </g>
    </g>
    <g id="xtick_11">
     <g id="line2d_44">
      <g>
       <use xlink:href="#m62632d20e6" x="439.060476" y="534.04" style="stroke: #000000; stroke-width: 0.8"/>
      </g>
     </g>
     <g id="text_35">
      <!-- 1.5 -->
      <g transform="translate(431.108914 548.638438) scale(0.1 -0.1)">
       <use xlink:href="#DejaVuSans-31"/>
       <use xlink:href="#DejaVuSans-2e" x="63.623047"/>
       <use xlink:href="#DejaVuSans-35" x="95.410156"/>
      </g>
     </g>
    </g>
    <g id="xtick_12">
     <g id="line2d_45">
      <g>
       <use xlink:href="#m62632d20e6" x="564.557302" y="534.04" style="stroke: #000000; stroke-width: 0.8"/>
      </g>
     </g>
     <g id="text_36">
      <!-- 2.0 -->
      <g transform="translate(556.605739 548.638438) scale(0.1 -0.1)">
       <use xlink:href="#DejaVuSans-32"/>
       <use xlink:href="#DejaVuSans-2e" x="63.623047"/>
       <use xlink:href="#DejaVuSans-30" x="95.410156"/>
      </g>
     </g>
    </g>
    <g id="xtick_13">
     <g id="line2d_46">
      <g>
       <use xlink:href="#m62632d20e6" x="690.054127" y="534.04" style="stroke: #000000; stroke-width: 0.8"/>
      </g>
     </g>
     <g id="text_37">
      <!-- 2.5 -->
      <g transform="translate(682.102564 548.638438) scale(0.1 -0.1)">
       <use xlink:href="#DejaVuSans-32"/>
       <use xlink:href="#DejaVuSans-2e" x="63.623047"/>
       <use xlink:href="#DejaVuSans-35" x="95.410156"/>
      </g>
     </g>
    </g>
    <g id="xtick_14">
     <g id="line2d_47">
      <g>
       <use xlink:href="#m62632d20e6" x="815.550952" y="534.04" style="stroke: #000000; stroke-width: 0.8"/>
      </g>
     </g>
     <g id="text_38">
      <!-- 3.0 -->
      <g transform="translate(807.59939 548.638438) scale(0.1 -0.1)">
       <use xlink:href="#DejaVuSans-33"/>
       <use xlink:href="#DejaVuSans-2e" x="63.623047"/>
       <use xlink:href="#DejaVuSans-30" x="95.410156"/>
      </g>
     </g>
    </g>
    <g id="text_39">
     <!-- Time (t) -->
     <g transform="translate(438.200625 562.316563) scale(0.1 -0.1)">
      <use xlink:href="#DejaVuSans-54"/>
      <use xlink:href="#DejaVuSans-69" x="57.958984"/>
      <use xlink:href="#DejaVuSans-6d" x="85.742188"/>
      <use xlink:href="#DejaVuSans-65" x="183.154297"/>
      <use xlink:href="#DejaVuSans-20" x="244.677734"/>
      <use xlink:href="#DejaVuSans-28" x="276.464844"/>
      <use xlink:href="#DejaVuSans-74" x="315.478516"/>
      <use xlink:href="#DejaVuSans-29" x="354.6875"/>
     </g>
    </g>
   </g>
   <g id="matplotlib.axis_4">
    <g id="ytick_10">
     <g id="line2d_48">
      <g>
       <use xlink:href="#mbe6bdf83d7" x="62.57" y="534.04" style="stroke: #000000; stroke-width: 0.8"/>
      </g>
     </g>
     <g id="text_40">
      <!-- −10.0 -->
      <g transform="translate(24.924688 537.839219) scale(0.1 -0.1)">
       <use xlink:href="#DejaVuSans-2212"/>
       <use xlink:href="#DejaVuSans-31" x="83.789062"/>
       <use xlink:href="#DejaVuSans-30" x="147.412109"/>
       <use xlink:href="#DejaVuSans-2e" x="211.035156"/>
       <use xlink:href="#DejaVuSans-30" x="242.822266"/>
      </g>
     </g>
    </g>
    <g id="ytick_11">
     <g id="line2d_49">
      <g>
       <use xlink:href="#mbe6bdf83d7" x="62.57" y="505.79" style="stroke: #000000; stroke-width: 0.8"/>
      </g>
     </g>
     <g id="text_41">
      <!-- −7.5 -->
      <g transform="translate(31.287188 509.589219) scale(0.1 -0.1)">
       <use xlink:href="#DejaVuSans-2212"/>
       <use xlink:href="#DejaVuSans-37" x="83.789062"/>
       <use xlink:href="#DejaVuSans-2e" x="147.412109"/>
       <use xlink:href="#DejaVuSans-35" x="179.199219"/>
      </g>
     </g>
    </g>
    <g id="ytick_12">
     <g id="line2d_50">
      <g>
       <use xlink:href="#mbe6bdf83d7" x="62.57" y="477.54" style="stroke: #000000; stroke-width: 0.8"/>
      </g>
     </g>
     <g id="text_42">
      <!-- −5.0 -->
      <g transform="translate(31.287188 481.339219) scale(0.1 -0.1)">
       <use xlink:href="#DejaVuSans-2212"/>
       <use xlink:href="#DejaVuSans-35" x="83.789062"/>
       <use xlink:href="#DejaVuSans-2e" x="147.412109"/>
       <use xlink:href="#DejaVuSans-30" x="179.199219"/>
      </g>
     </g>
    </g>
    <g id="ytick_13">
     <g id="line2d_51">
      <g>
       <use xlink:href="#mbe6bdf83d7" x="62.57" y="449.29" style="stroke: #000000; stroke-width: 0.8"/>
      </g>
     </g>
     <g id="text_43">
      <!-- −2.5 -->
      <g transform="translate(31.287188 453.089219) scale(0.1 -0.1)">
       <use xlink:href="#DejaVuSans-2212"/>
       <use xlink:href="#DejaVuSans-32" x="83.789062"/>
       <use xlink:href="#DejaVuSans-2e" x="147.412109"/>
       <use xlink:href="#DejaVuSans-35" x="179.199219"/>
      </g>
     </g>
    </g>
    <g id="ytick_14">
     <g id="line2d_52">
      <g>
       <use xlink:href="#mbe6bdf83d7" x="62.57" y="421.04" style="stroke: #000000; stroke-width: 0.8"/>
      </g>
     </g>
     <g id="text_44">
      <!-- 0.0 -->
      <g transform="translate(39.666875 424.839219) scale(0.1 -0.1)">
       <use xlink:href="#DejaVuSans-30"/>
       <use xlink:href="#DejaVuSans-2e" x="63.623047"/>
       <use xlink:href="#DejaVuSans-30" x="95.410156"/>
      </g>
     </g>
    </g>
    <g id="ytick_15">
     <g id="line2d_53">
      <g>
       <use xlink:href="#mbe6bdf83d7" x="62.57" y="392.79" style="stroke: #000000; stroke-width: 0.8"/>
      </g>
     </g>
     <g id="text_45">
      <!-- 2.5 -->
      <g transform="translate(39.666875 396.589219) scale(0.1 -0.1)">
       <use xlink:href="#DejaVuSans-32"/>
       <use xlink:href="#DejaVuSans-2e" x="63.623047"/>
       <use xlink:href="#DejaVuSans-35" x="95.410156"/>
      </g>
     </g>
    </g>
    <g id="ytick_16">
     <g id="line2d_54">
      <g>
       <use xlink:href="#mbe6bdf83d7" x="62.57" y="364.54" style="stroke: #000000; stroke-width: 0.8"/>
      </g>
     </g>
     <g id="text_46">
      <!-- 5.0 -->
      <g transform="translate(39.666875 368.339219) scale(0.1 -0.1)">
       <use xlink:href="#DejaVuSans-35"/>
       <use xlink:href="#DejaVuSans-2e" x="63.623047"/>
       <use xlink:href="#DejaVuSans-30" x="95.410156"/>
      </g>
     </g>
    </g>
    <g id="ytick_17">
     <g id="line2d_55">
      <g>
       <use xlink:href="#mbe6bdf83d7" x="62.57" y="336.29" style="stroke: #000000; stroke-width: 0.8"/>
      </g>
     </g>
     <g id="text_47">
      <!-- 7.5 -->
      <g transform="translate(39.666875 340.089219) scale(0.1 -0.1)">
       <use xlink:href="#DejaVuSans-37"/>
       <use xlink:href="#DejaVuSans-2e" x="63.623047"/>
       <use xlink:href="#DejaVuSans-35" x="95.410156"/>
      </g>
     </g>
    </g>
    <g id="ytick_18">
     <g id="line2d_56">
      <g>
       <use xlink:href="#mbe6bdf83d7" x="62.57" y="308.04" style="stroke: #000000; stroke-width: 0.8"/>
      </g>
     </g>
     <g id="text_48">
      <!-- 10.0 -->
      <g transform="translate(33.304375 311.839219) scale(0.1 -0.1)">
       <use xlink:href="#DejaVuSans-31"/>
       <use xlink:href="#DejaVuSans-30" x="63.623047"/>
       <use xlink:href="#DejaVuSans-2e" x="127.246094"/>
       <use xlink:href="#DejaVuSans-30" x="159.033203"/>
      </g>
     </g>
    </g>
    <g id="text_49">
     <!-- y(t) -->
     <g transform="translate(18.845 429.861094) rotate(-90) scale(0.1 -0.1)">
      <defs>
       <path id="DejaVuSans-79" d="M 2059 -325 
Q 1816 -950 1584 -1140 
Q 1353 -1331 966 -1331 
L 506 -1331 
L 506 -850 
L 844 -850 
Q 1081 -850 1212 -737 
Q 1344 -625 1503 -206 
L 1606 56 
L 191 3500 
L 800 3500 
L 1894 763 
L 2988 3500 
L 3597 3500 
L 2059 -325 
z
" transform="scale(0.015625)"/>
      </defs>
      <use xlink:href="#DejaVuSans-79"/>
      <use xlink:href="#DejaVuSans-28" x="59.179688"/>
      <use xlink:href="#DejaVuSans-74" x="98.193359"/>
      <use xlink:href="#DejaVuSans-29" x="137.402344"/>
     </g>
    </g>
   </g>
   <g id="line2d_57">
    <path d="M 62.57 409.74 
L 65.088331 409.274834 
L 67.606662 408.785281 
L 70.124993 408.269556 
L 72.643324 407.725656 
L 75.161655 407.151357 
L 77.679986 406.54409 
L 80.198317 405.8962 
L 82.716648 405.205752 
L 85.234978 404.473358 
L 87.753309 403.69789 
L 90.27164 402.876481 
L 92.789971 402.004524 
L 95.308302 401.07567 
L 97.826633 400.081833 
L 100.344964 399.013185 
L 102.863295 397.85816 
L 105.381626 396.603451 
L 107.899957 395.234011 
L 110.418288 393.733053 
L 112.936619 392.082051 
L 115.45495 390.260739 
L 117.973281 388.247111 
L 120.491612 386.005143 
L 123.009943 383.482377 
L 125.528274 380.615512 
L 128.046605 377.319395 
L 130.564935 373.475274 
L 133.083266 368.934833 
L 135.601597 363.449448 
L 138.119928 356.639713 
L 140.638259 347.918418 
L 143.15659 336.226249 
L 145.674921 319.471331 
L 148.193252 293.077927 
L 150.711583 243.209027 
L 153.229914 102.330991 
" clip-path="url(#p4490908506)" style="fill: none; stroke: #1f77b4; stroke-width: 1.5; stroke-linecap: square"/>
   </g>
   <g id="line2d_58">
    <path d="M 62.57 443.64 
L 65.088331 442.575013 
L 67.606662 441.632241 
L 70.124993 440.791223 
L 72.643324 440.034958 
L 75.161655 439.349612 
L 77.679986 438.722885 
L 80.198317 438.148492 
L 82.716648 437.621377 
L 85.234978 437.136544 
L 87.753309 436.689053 
L 90.27164 436.274026 
L 92.789971 435.88664 
L 95.308302 435.522134 
L 97.826633 435.175802 
L 100.344964 434.843352 
L 102.863295 434.525335 
L 105.381626 434.221593 
L 107.899957 433.931035 
L 110.418288 433.65255 
L 112.936619 433.385005 
L 115.45495 433.127249 
L 117.973281 432.878108 
L 120.491612 432.636389 
L 123.009943 432.400878 
L 125.528274 432.170339 
L 128.046605 431.943519 
L 130.564935 431.71914 
L 133.083266 431.496061 
L 135.601597 431.274334 
L 138.119928 431.053823 
L 140.638259 430.83418 
L 143.15659 430.614951 
L 145.674921 430.395581 
L 148.193252 430.175411 
L 150.711583 429.953679 
L 153.229914 429.729519 
L 155.748245 429.501963 
L 158.266576 429.26994 
L 160.784907 429.032274 
L 163.303238 428.787691 
L 165.821569 428.535405 
L 168.3399 428.274521 
L 170.858231 428.00345 
L 173.376562 427.720269 
L 175.894892 427.422581 
L 178.413223 427.107278 
L 180.931554 426.770911 
L 183.449885 426.406894 
L 185.968216 426.005174 
L 188.486547 425.550708 
L 191.004878 425.011899 
L 193.523209 424.302015 
" clip-path="url(#p4490908506)" style="fill: none; stroke: #ff7f0e; stroke-width: 1.5; stroke-linecap: square"/>
   </g>
   <g id="line2d_59">
    <path d="M 62.57 375.84 
L 65.088331 377.967784 
L 67.606662 379.843555 
L 70.124993 381.504128 
L 72.643324 382.980326 
L 75.161655 384.297401 
L 80.198317 386.537188 
L 85.234978 388.344093 
L 90.27164 389.810466 
L 95.308302 391.010937 
L 100.344964 392.00242 
L 105.381626 392.824189 
L 112.936619 393.794625 
L 120.491612 394.510722 
L 128.046605 395.027786 
L 138.119928 395.47913 
L 148.193252 395.716352 
L 160.784907 395.779214 
L 175.894892 395.591344 
L 193.523209 395.107491 
L 213.669857 394.317908 
L 238.853166 393.103363 
L 329.51308 388.460824 
L 357.21472 387.418344 
L 382.39803 386.706792 
L 405.063008 386.292671 
L 430.246318 386.07316 
L 460.466289 386.041861 
L 500.759584 386.242972 
L 639.267786 387.113411 
L 707.262722 387.242105 
L 815.550952 387.214183 
L 815.550952 387.214183 
" clip-path="url(#p4490908506)" style="fill: none; stroke: #2ca02c; stroke-width: 1.5; stroke-linecap: square"/>
   </g>
   <g id="line2d_60">
    <path d="M 62.57 415.39 
L 65.088331 415.14185 
L 67.606662 414.878421 
L 70.124993 414.598291 
L 72.643324 414.299803 
L 75.161655 413.981071 
L 77.679986 413.639601 
L 80.198317 413.270757 
L 82.716648 412.873751 
L 85.234978 412.447183 
L 87.753309 411.987955 
L 90.27164 411.491276 
L 92.789971 410.950655 
L 95.308302 410.357909 
L 97.826633 409.703157 
L 100.344964 408.974822 
L 102.863295 408.159631 
L 105.381626 407.242615 
L 107.899957 406.205986 
L 110.418288 405.018798 
L 112.936619 403.648568 
L 115.45495 402.04139 
L 117.973281 400.116866 
L 120.491612 397.760758 
L 123.009943 394.763272 
L 125.528274 391.002408 
L 128.046605 385.926689 
L 130.564935 378.421956 
L 133.083266 366.530477 
L 135.601597 344.178685 
L 138.119928 283.196939 
L 138.542559 -1 
" clip-path="url(#p4490908506)" style="fill: none; stroke: #d62728; stroke-width: 1.5; stroke-linecap: square"/>
   </g>
   <g id="line2d_61">
    <path d="M 62.57 398.44 
L 65.088331 399.472664 
L 67.606662 400.330873 
L 72.643324 401.658102 
L 77.679986 402.624749 
L 82.716648 403.331876 
L 87.753309 403.826763 
L 95.308302 404.274241 
L 105.381626 404.565314 
L 115.45495 404.63504 
L 125.528274 404.496469 
L 138.119928 404.101463 
L 155.748245 403.286391 
L 170.858231 402.376702 
L 188.486547 401.095196 
L 211.151526 399.208041 
L 236.334835 396.882664 
L 316.921425 389.17367 
L 337.068073 387.591901 
L 354.69639 386.429494 
L 369.806375 385.634235 
L 384.916361 385.049415 
L 402.544677 384.609047 
L 420.172994 384.400775 
L 440.319642 384.403636 
L 462.98462 384.639304 
L 498.241253 385.267248 
L 561.199527 386.435876 
L 606.529484 387.006358 
L 646.822779 387.296915 
L 697.189398 387.42197 
L 770.220995 387.352939 
L 815.550952 387.267875 
L 815.550952 387.267875 
" clip-path="url(#p4490908506)" style="fill: none; stroke: #9467bd; stroke-width: 1.5; stroke-linecap: square"/>
   </g>
   <g id="line2d_62">
    <path d="M 62.57 375.84 
L 65.088331 383.499106 
L 67.606662 388.415807 
L 70.124993 391.935616 
L 72.643324 394.603981 
L 75.161655 396.629046 
L 77.679986 398.217481 
L 80.198317 399.501597 
L 82.716648 400.54676 
L 85.234978 401.399009 
L 87.753309 402.098736 
L 92.789971 403.174059 
L 97.826633 403.966241 
L 102.863295 404.537671 
L 110.418288 405.077671 
L 117.973281 405.358276 
L 128.046605 405.504098 
L 138.119928 405.431386 
L 150.711583 405.086609 
L 165.821569 404.428472 
L 180.931554 403.586788 
L 198.559871 402.373109 
L 218.706519 400.742876 
L 241.371497 398.690641 
L 266.554806 396.184666 
L 324.476418 390.315001 
L 347.141397 388.298408 
L 364.769713 386.946149 
L 379.879699 385.982901 
L 394.989685 385.234772 
L 410.09967 384.696628 
L 427.727987 384.313434 
L 445.356304 384.166647 
L 465.502951 384.240129 
L 490.686261 384.588635 
L 528.461225 385.371652 
L 576.309513 386.317542 
L 621.63947 386.964091 
L 661.932765 387.294528 
L 709.781053 387.439052 
L 775.257657 387.394883 
L 815.550952 387.314872 
L 815.550952 387.314872 
" clip-path="url(#p4490908506)" style="fill: none; stroke: #8c564b; stroke-width: 1.5; stroke-linecap: square"/>
   </g>
   <g id="line2d_63">
    <path d="M 62.57 409.74 
L 80.198317 408.038734 
L 97.826633 406.105591 
L 115.45495 403.924755 
L 133.083266 401.491287 
L 150.711583 398.825811 
L 170.858231 395.555883 
L 231.298173 385.539145 
L 243.889828 383.75209 
L 256.481483 382.190819 
L 266.554806 381.142951 
L 276.62813 380.306534 
L 286.701454 379.687863 
L 296.774778 379.278013 
L 306.848102 379.065488 
L 319.439756 379.055649 
L 332.031411 379.298858 
L 344.623066 379.755742 
L 359.733051 380.521352 
L 382.39803 381.925741 
L 417.654663 384.112058 
L 437.801311 385.130897 
L 460.466289 386.054379 
L 483.131268 386.801594 
L 505.796246 387.330007 
L 530.979556 387.702598 
L 561.199527 387.914385 
L 596.45616 387.923898 
L 656.896103 387.678295 
L 775.257657 387.148661 
L 815.550952 387.078182 
L 815.550952 387.078182 
" clip-path="url(#p4490908506)" style="fill: none; stroke: #e377c2; stroke-width: 1.5; stroke-linecap: square"/>
   </g>
   <g id="line2d_64">
    <path d="M 62.57 375.84 
L 65.088331 384.666158 
L 67.606662 389.824829 
L 70.124993 393.49804 
L 72.643324 396.219896 
L 75.161655 398.245389 
L 77.679986 399.817759 
L 80.198317 401.06205 
L 82.716648 402.050133 
L 85.234978 402.843329 
L 90.27164 404.043296 
L 95.308302 404.905598 
L 100.344964 405.506232 
L 105.381626 405.912813 
L 112.936619 406.287298 
L 123.009943 406.512761 
L 133.083266 406.476387 
L 145.674921 406.165782 
L 160.784907 405.569287 
L 175.894892 404.750104 
L 193.523209 403.554064 
L 213.669857 401.955561 
L 233.816504 400.128112 
L 256.481483 397.847561 
L 299.293109 393.263871 
L 329.51308 390.104192 
L 349.659728 388.218384 
L 367.288044 386.816783 
L 382.39803 385.823636 
L 397.508016 385.029857 
L 412.618001 384.438214 
L 427.727987 384.047606 
L 442.837973 383.853064 
L 460.466289 383.861257 
L 480.612937 384.106859 
L 510.832908 384.73529 
L 588.901167 386.486352 
L 624.157801 386.995432 
L 661.932765 387.303229 
L 707.262722 387.459189 
L 775.257657 387.423969 
L 815.550952 387.335107 
L 815.550952 387.335107 
" clip-path="url(#p4490908506)" style="fill: none; stroke: #7f7f7f; stroke-width: 1.5; stroke-linecap: square"/>
   </g>
   <g id="line2d_65">
    <path d="M 62.57 421.04 
L 815.550952 421.04 
L 815.550952 421.04 
" clip-path="url(#p4490908506)" style="fill: none; stroke: #bcbd22; stroke-width: 1.5; stroke-linecap: square"/>
   </g>
   <g id="line2d_66">
    <path d="M 62.57 505.79 
L 65.088331 502.415469 
L 67.606662 499.806905 
L 70.124993 497.790233 
L 72.643324 496.235138 
L 75.161655 495.044522 
L 77.679986 494.167578 
L 80.198317 493.570867 
L 82.716648 493.221796 
L 85.234978 493.088611 
L 87.753309 493.140405 
L 90.27164 493.347113 
L 92.789971 493.680094 
L 95.308302 494.135433 
L 97.826633 494.716945 
L 100.344964 495.422062 
L 105.381626 497.189885 
L 110.418288 499.406571 
L 115.45495 502.030375 
L 120.491612 505.02516 
L 125.528274 508.413606 
L 130.564935 512.211669 
L 135.601597 516.425907 
L 140.638259 521.054918 
L 145.674921 526.106872 
L 150.711583 531.609918 
L 155.748245 537.584457 
L 160.784907 544.044396 
L 165.821569 551.0076 
L 170.858231 558.503063 
L 175.894892 566.554782 
L 180.931554 575.183717 
L 181.938986 577 
L 181.938986 577 
" clip-path="url(#p4490908506)" style="fill: none; stroke: #17becf; stroke-width: 1.5; stroke-linecap: square"/>
   </g>
   <g id="line2d_67">
    <path d="M 62.57 398.44 
L 70.124993 396.304215 
L 77.679986 393.966594 
L 85.234978 391.407545 
L 92.789971 388.605865 
L 100.344964 385.540242 
L 107.899957 382.186362 
L 115.45495 378.516785 
L 123.009943 374.500938 
L 128.046605 371.614819 
L 133.083266 368.549128 
L 138.119928 365.292488 
L 143.15659 361.832903 
L 148.193252 358.157758 
L 153.229914 354.253822 
L 158.266576 350.107243 
L 163.303238 345.703551 
L 168.3399 341.02766 
L 173.376562 336.060806 
L 178.413223 330.78221 
L 183.449885 325.175962 
L 188.486547 319.224208 
L 193.523209 312.907018 
L 198.559871 306.202384 
L 203.596533 299.086221 
L 208.633195 291.532367 
L 213.669857 283.512579 
L 218.706519 274.99654 
L 223.74318 265.951854 
L 228.779842 256.344047 
L 233.816504 246.136568 
L 238.853166 235.290788 
L 243.889828 223.766 
L 248.92649 211.51942 
L 253.963152 198.506185 
L 258.999814 184.679358 
L 264.036476 169.989919 
L 269.073137 154.386775 
L 274.109799 137.816753 
L 279.146461 120.224602 
L 284.183123 101.552545 
L 289.219785 81.709953 
L 294.256447 60.621943 
L 299.293109 38.227755 
L 304.329771 14.457947 
L 307.44491 -1 
L 307.44491 -1 
" clip-path="url(#p4490908506)" style="fill: none; stroke: #1f77b4; stroke-width: 1.5; stroke-linecap: square"/>
   </g>
   <g id="line2d_68">
    <path d="M 62.57 387.14 
L 853.2 387.14 
" clip-path="url(#p4490908506)" style="fill: none; stroke-dasharray: 5.55,2.4; stroke-dashoffset: 0; stroke: #000000; stroke-width: 1.5"/>
   </g>
   <g id="patch_9">
    <path d="M 62.57 534.04 
L 62.57 308.04 
" style="fill: none; stroke: #000000; stroke-width: 0.8; stroke-linejoin: miter; stroke-linecap: square"/>
   </g>
   <g id="patch_10">
    <path d="M 853.2 534.04 
L 853.2 308.04 
" style="fill: none; stroke: #000000; stroke-width: 0.8; stroke-linejoin: miter; stroke-linecap: square"/>
   </g>
   <g id="patch_11">
    <path d="M 62.57 534.04 
L 853.2 534.04 
" style="fill: none; stroke: #000000; stroke-width: 0.8; stroke-linejoin: miter; stroke-linecap: square"/>
   </g>
   <g id="patch_12">
    <path d="M 62.57 308.04 
L 853.2 308.04 
" style="fill: none; stroke: #000000; stroke-width: 0.8; stroke-linejoin: miter; stroke-linecap: square"/>
   </g>
   <g id="text_50">
    <!-- (b) -->
    <g transform="translate(449.394063 302.04) scale(0.12 -0.12)">
     <defs>
      <path id="DejaVuSans-62" d="M 3116 1747 
Q 3116 2381 2855 2742 
Q 2594 3103 2138 3103 
Q 1681 3103 1420 2742 
Q 1159 2381 1159 1747 
Q 1159 1113 1420 752 
Q 1681 391 2138 391 
Q 2594 391 2855 752 
Q 3116 1113 3116 1747 
z
M 1159 2969 
Q 1341 3281 1617 3432 
Q 1894 3584 2278 3584 
Q 2916 3584 3314 3078 
Q 3713 2572 3713 1747 
Q 3713 922 3314 415 
Q 2916 -91 2278 -91 
Q 1894 -91 1617 61 
Q 1341 213 1159 525 
L 1159 0 
L 581 0 
L 581 4863 
L 1159 4863 
L 1159 2969 
z
" transform="scale(0.015625)"/>
     </defs>
     <use xlink:href="#DejaVuSans-28"/>
     <use xlink:href="#DejaVuSans-62" x="39.013672"/>
     <use xlink:href="#DejaVuSans-29" x="102.490234"/>
    </g>
   </g>
   <g id="legend_2">
    <g id="patch_13">
     <path d="M 741.784375 492.197812 
L 846.2 492.197812 
Q 848.2 492.197812 848.2 490.197812 
L 848.2 315.04 
Q 848.2 313.04 846.2 313.04 
L 741.784375 313.04 
Q 739.784375 313.04 739.784375 315.04 
L 739.784375 490.197812 
Q 739.784375 492.197812 741.784375 492.197812 
z
" style="fill: #ffffff; opacity: 0.8; stroke: #cccccc; stroke-linejoin: miter"/>
    </g>
    <g id="line2d_69">
     <path d="M 743.784375 321.138438 
L 753.784375 321.138438 
L 763.784375 321.138438 
" style="fill: none; stroke: #1f77b4; stroke-width: 1.5; stroke-linecap: square"/>
    </g>
    <g id="text_51">
     <!-- IC 1: (1, 1) -->
     <g transform="translate(771.784375 324.638438) scale(0.1 -0.1)">
      <use xlink:href="#DejaVuSans-49"/>
      <use xlink:href="#DejaVuSans-43" x="29.492188"/>
      <use xlink:href="#DejaVuSans-20" x="99.316406"/>
      <use xlink:href="#DejaVuSans-31" x="131.103516"/>
      <use xlink:href="#DejaVuSans-3a" x="194.726562"/>
      <use xlink:href="#DejaVuSans-20" x="228.417969"/>
      <use xlink:href="#DejaVuSans-28" x="260.205078"/>
      <use xlink:href="#DejaVuSans-31" x="299.21875"/>
      <use xlink:href="#DejaVuSans-2c" x="362.841797"/>
      <use xlink:href="#DejaVuSans-20" x="394.628906"/>
      <use xlink:href="#DejaVuSans-31" x="426.416016"/>
      <use xlink:href="#DejaVuSans-29" x="490.039062"/>
     </g>
    </g>
    <g id="line2d_70">
     <path d="M 743.784375 335.816563 
L 753.784375 335.816563 
L 763.784375 335.816563 
" style="fill: none; stroke: #ff7f0e; stroke-width: 1.5; stroke-linecap: square"/>
    </g>
    <g id="text_52">
     <!-- IC 2: (4, -2) -->
     <g transform="translate(771.784375 339.316563) scale(0.1 -0.1)">
      <use xlink:href="#DejaVuSans-49"/>
      <use xlink:href="#DejaVuSans-43" x="29.492188"/>
      <use xlink:href="#DejaVuSans-20" x="99.316406"/>
      <use xlink:href="#DejaVuSans-32" x="131.103516"/>
      <use xlink:href="#DejaVuSans-3a" x="194.726562"/>
      <use xlink:href="#DejaVuSans-20" x="228.417969"/>
      <use xlink:href="#DejaVuSans-28" x="260.205078"/>
      <use xlink:href="#DejaVuSans-34" x="299.21875"/>
      <use xlink:href="#DejaVuSans-2c" x="362.841797"/>
      <use xlink:href="#DejaVuSans-20" x="394.628906"/>
      <use xlink:href="#DejaVuSans-2d" x="426.416016"/>
      <use xlink:href="#DejaVuSans-32" x="462.5"/>
      <use xlink:href="#DejaVuSans-29" x="526.123047"/>
     </g>
    </g>
    <g id="line2d_71">
     <path d="M 743.784375 350.494688 
L 753.784375 350.494688 
L 763.784375 350.494688 
" style="fill: none; stroke: #2ca02c; stroke-width: 1.5; stroke-linecap: square"/>
    </g>
    <g id="text_53">
     <!-- IC 3: (-2, 4) -->
     <g transform="translate(771.784375 353.994688) scale(0.1 -0.1)">
      <use xlink:href="#DejaVuSans-49"/>
      <use xlink:href="#DejaVuSans-43" x="29.492188"/>
      <use xlink:href="#DejaVuSans-20" x="99.316406"/>
      <use xlink:href="#DejaVuSans-33" x="131.103516"/>
      <use xlink:href="#DejaVuSans-3a" x="194.726562"/>
      <use xlink:href="#DejaVuSans-20" x="228.417969"/>
      <use xlink:href="#DejaVuSans-28" x="260.205078"/>
      <use xlink:href="#DejaVuSans-2d" x="299.21875"/>
      <use xlink:href="#DejaVuSans-32" x="335.302734"/>
      <use xlink:href="#DejaVuSans-2c" x="398.925781"/>
      <use xlink:href="#DejaVuSans-20" x="430.712891"/>
      <use xlink:href="#DejaVuSans-34" x="462.5"/>
      <use xlink:href="#DejaVuSans-29" x="526.123047"/>
     </g>
    </g>
    <g id="line2d_72">
     <path d="M 743.784375 365.172813 
L 753.784375 365.172813 
L 763.784375 365.172813 
" style="fill: none; stroke: #d62728; stroke-width: 1.5; stroke-linecap: square"/>
    </g>
    <g id="text_54">
     <!-- IC 4: (2.5, 0.5) -->
     <g transform="translate(771.784375 368.672813) scale(0.1 -0.1)">
      <use xlink:href="#DejaVuSans-49"/>
      <use xlink:href="#DejaVuSans-43" x="29.492188"/>
      <use xlink:href="#DejaVuSans-20" x="99.316406"/>
      <use xlink:href="#DejaVuSans-34" x="131.103516"/>
      <use xlink:href="#DejaVuSans-3a" x="194.726562"/>
      <use xlink:href="#DejaVuSans-20" x="228.417969"/>
      <use xlink:href="#DejaVuSans-28" x="260.205078"/>
      <use xlink:href="#DejaVuSans-32" x="299.21875"/>
      <use xlink:href="#DejaVuSans-2e" x="362.841797"/>
      <use xlink:href="#DejaVuSans-35" x="394.628906"/>
      <use xlink:href="#DejaVuSans-2c" x="458.251953"/>
      <use xlink:href="#DejaVuSans-20" x="490.039062"/>
      <use xlink:href="#DejaVuSans-30" x="521.826172"/>
      <use xlink:href="#DejaVuSans-2e" x="585.449219"/>
      <use xlink:href="#DejaVuSans-35" x="617.236328"/>
      <use xlink:href="#DejaVuSans-29" x="680.859375"/>
     </g>
    </g>
    <g id="line2d_73">
     <path d="M 743.784375 379.850938 
L 753.784375 379.850938 
L 763.784375 379.850938 
" style="fill: none; stroke: #9467bd; stroke-width: 1.5; stroke-linecap: square"/>
    </g>
    <g id="text_55">
     <!-- IC 5: (-4, 2) -->
     <g transform="translate(771.784375 383.350938) scale(0.1 -0.1)">
      <use xlink:href="#DejaVuSans-49"/>
      <use xlink:href="#DejaVuSans-43" x="29.492188"/>
      <use xlink:href="#DejaVuSans-20" x="99.316406"/>
      <use xlink:href="#DejaVuSans-35" x="131.103516"/>
      <use xlink:href="#DejaVuSans-3a" x="194.726562"/>
      <use xlink:href="#DejaVuSans-20" x="228.417969"/>
      <use xlink:href="#DejaVuSans-28" x="260.205078"/>
      <use xlink:href="#DejaVuSans-2d" x="299.21875"/>
      <use xlink:href="#DejaVuSans-34" x="335.302734"/>
      <use xlink:href="#DejaVuSans-2c" x="398.925781"/>
      <use xlink:href="#DejaVuSans-20" x="430.712891"/>
      <use xlink:href="#DejaVuSans-32" x="462.5"/>
      <use xlink:href="#DejaVuSans-29" x="526.123047"/>
     </g>
    </g>
    <g id="line2d_74">
     <path d="M 743.784375 394.529063 
L 753.784375 394.529063 
L 763.784375 394.529063 
" style="fill: none; stroke: #8c564b; stroke-width: 1.5; stroke-linecap: square"/>
    </g>
    <g id="text_56">
     <!-- IC 6: (-6, 4) -->
     <g transform="translate(771.784375 398.029063) scale(0.1 -0.1)">
      <use xlink:href="#DejaVuSans-49"/>
      <use xlink:href="#DejaVuSans-43" x="29.492188"/>
      <use xlink:href="#DejaVuSans-20" x="99.316406"/>
      <use xlink:href="#DejaVuSans-36" x="131.103516"/>
      <use xlink:href="#DejaVuSans-3a" x="194.726562"/>
      <use xlink:href="#DejaVuSans-20" x="228.417969"/>
      <use xlink:href="#DejaVuSans-28" x="260.205078"/>
      <use xlink:href="#DejaVuSans-2d" x="299.21875"/>
      <use xlink:href="#DejaVuSans-36" x="335.302734"/>
      <use xlink:href="#DejaVuSans-2c" x="398.925781"/>
      <use xlink:href="#DejaVuSans-20" x="430.712891"/>
      <use xlink:href="#DejaVuSans-34" x="462.5"/>
      <use xlink:href="#DejaVuSans-29" x="526.123047"/>
     </g>
    </g>
    <g id="line2d_75">
     <path d="M 743.784375 409.207188 
L 753.784375 409.207188 
L 763.784375 409.207188 
" style="fill: none; stroke: #e377c2; stroke-width: 1.5; stroke-linecap: square"/>
    </g>
    <g id="text_57">
     <!-- IC 7: (-1, 1) -->
     <g transform="translate(771.784375 412.707188) scale(0.1 -0.1)">
      <use xlink:href="#DejaVuSans-49"/>
      <use xlink:href="#DejaVuSans-43" x="29.492188"/>
      <use xlink:href="#DejaVuSans-20" x="99.316406"/>
      <use xlink:href="#DejaVuSans-37" x="131.103516"/>
      <use xlink:href="#DejaVuSans-3a" x="194.726562"/>
      <use xlink:href="#DejaVuSans-20" x="228.417969"/>
      <use xlink:href="#DejaVuSans-28" x="260.205078"/>
      <use xlink:href="#DejaVuSans-2d" x="299.21875"/>
      <use xlink:href="#DejaVuSans-31" x="335.302734"/>
      <use xlink:href="#DejaVuSans-2c" x="398.925781"/>
      <use xlink:href="#DejaVuSans-20" x="430.712891"/>
      <use xlink:href="#DejaVuSans-31" x="462.5"/>
      <use xlink:href="#DejaVuSans-29" x="526.123047"/>
     </g>
    </g>
    <g id="line2d_76">
     <path d="M 743.784375 423.885312 
L 753.784375 423.885312 
L 763.784375 423.885312 
" style="fill: none; stroke: #7f7f7f; stroke-width: 1.5; stroke-linecap: square"/>
    </g>
    <g id="text_58">
     <!-- IC 8: (-7, 4) -->
     <g transform="translate(771.784375 427.385312) scale(0.1 -0.1)">
      <use xlink:href="#DejaVuSans-49"/>
      <use xlink:href="#DejaVuSans-43" x="29.492188"/>
      <use xlink:href="#DejaVuSans-20" x="99.316406"/>
      <use xlink:href="#DejaVuSans-38" x="131.103516"/>
      <use xlink:href="#DejaVuSans-3a" x="194.726562"/>
      <use xlink:href="#DejaVuSans-20" x="228.417969"/>
      <use xlink:href="#DejaVuSans-28" x="260.205078"/>
      <use xlink:href="#DejaVuSans-2d" x="299.21875"/>
      <use xlink:href="#DejaVuSans-37" x="335.302734"/>
      <use xlink:href="#DejaVuSans-2c" x="398.925781"/>
      <use xlink:href="#DejaVuSans-20" x="430.712891"/>
      <use xlink:href="#DejaVuSans-34" x="462.5"/>
      <use xlink:href="#DejaVuSans-29" x="526.123047"/>
     </g>
    </g>
    <g id="line2d_77">
     <path d="M 743.784375 438.563438 
L 753.784375 438.563438 
L 763.784375 438.563438 
" style="fill: none; stroke: #bcbd22; stroke-width: 1.5; stroke-linecap: square"/>
    </g>
    <g id="text_59">
     <!-- IC 9: (0, 0) -->
     <g transform="translate(771.784375 442.063438) scale(0.1 -0.1)">
      <use xlink:href="#DejaVuSans-49"/>
      <use xlink:href="#DejaVuSans-43" x="29.492188"/>
      <use xlink:href="#DejaVuSans-20" x="99.316406"/>
      <use xlink:href="#DejaVuSans-39" x="131.103516"/>
      <use xlink:href="#DejaVuSans-3a" x="194.726562"/>
      <use xlink:href="#DejaVuSans-20" x="228.417969"/>
      <use xlink:href="#DejaVuSans-28" x="260.205078"/>
      <use xlink:href="#DejaVuSans-30" x="299.21875"/>
      <use xlink:href="#DejaVuSans-2c" x="362.841797"/>
      <use xlink:href="#DejaVuSans-20" x="394.628906"/>
      <use xlink:href="#DejaVuSans-30" x="426.416016"/>
      <use xlink:href="#DejaVuSans-29" x="490.039062"/>
     </g>
    </g>
    <g id="line2d_78">
     <path d="M 743.784375 453.241562 
L 753.784375 453.241562 
L 763.784375 453.241562 
" style="fill: none; stroke: #17becf; stroke-width: 1.5; stroke-linecap: square"/>
    </g>
    <g id="text_60">
     <!-- IC 10: (1, -7.5) -->
     <g transform="translate(771.784375 456.741562) scale(0.1 -0.1)">
      <use xlink:href="#DejaVuSans-49"/>
      <use xlink:href="#DejaVuSans-43" x="29.492188"/>
      <use xlink:href="#DejaVuSans-20" x="99.316406"/>
      <use xlink:href="#DejaVuSans-31" x="131.103516"/>
      <use xlink:href="#DejaVuSans-30" x="194.726562"/>
      <use xlink:href="#DejaVuSans-3a" x="258.349609"/>
      <use xlink:href="#DejaVuSans-20" x="292.041016"/>
      <use xlink:href="#DejaVuSans-28" x="323.828125"/>
      <use xlink:href="#DejaVuSans-31" x="362.841797"/>
      <use xlink:href="#DejaVuSans-2c" x="426.464844"/>
      <use xlink:href="#DejaVuSans-20" x="458.251953"/>
      <use xlink:href="#DejaVuSans-2d" x="490.039062"/>
      <use xlink:href="#DejaVuSans-37" x="526.123047"/>
      <use xlink:href="#DejaVuSans-2e" x="589.746094"/>
      <use xlink:href="#DejaVuSans-35" x="621.533203"/>
      <use xlink:href="#DejaVuSans-29" x="685.15625"/>
     </g>
    </g>
    <g id="line2d_79">
     <path d="M 743.784375 467.919688 
L 753.784375 467.919688 
L 763.784375 467.919688 
" style="fill: none; stroke: #1f77b4; stroke-width: 1.5; stroke-linecap: square"/>
    </g>
    <g id="text_61">
     <!-- IC 11: (0, 2) -->
     <g transform="translate(771.784375 471.419688) scale(0.1 -0.1)">
      <use xlink:href="#DejaVuSans-49"/>
      <use xlink:href="#DejaVuSans-43" x="29.492188"/>
      <use xlink:href="#DejaVuSans-20" x="99.316406"/>
      <use xlink:href="#DejaVuSans-31" x="131.103516"/>
      <use xlink:href="#DejaVuSans-31" x="194.726562"/>
      <use xlink:href="#DejaVuSans-3a" x="258.349609"/>
      <use xlink:href="#DejaVuSans-20" x="292.041016"/>
      <use xlink:href="#DejaVuSans-28" x="323.828125"/>
      <use xlink:href="#DejaVuSans-30" x="362.841797"/>
      <use xlink:href="#DejaVuSans-2c" x="426.464844"/>
      <use xlink:href="#DejaVuSans-20" x="458.251953"/>
      <use xlink:href="#DejaVuSans-32" x="490.039062"/>
      <use xlink:href="#DejaVuSans-29" x="553.662109"/>
     </g>
    </g>
    <g id="line2d_80">
     <path d="M 743.784375 482.597812 
L 753.784375 482.597812 
L 763.784375 482.597812 
" style="fill: none; stroke-dasharray: 5.55,2.4; stroke-dashoffset: 0; stroke: #000000; stroke-width: 1.5"/>
    </g>
    <g id="text_62">
     <!-- $y = 3$ -->
     <g transform="translate(771.784375 486.097812) scale(0.1 -0.1)">
      <defs>
       <path id="DejaVuSans-Oblique-79" d="M 1588 -325 
Q 1188 -997 936 -1164 
Q 684 -1331 294 -1331 
L -159 -1331 
L -63 -850 
L 269 -850 
Q 509 -850 678 -719 
Q 847 -588 1056 -206 
L 1234 128 
L 459 3500 
L 1069 3500 
L 1650 819 
L 3256 3500 
L 3859 3500 
L 1588 -325 
z
" transform="scale(0.015625)"/>
      </defs>
      <use xlink:href="#DejaVuSans-Oblique-79" transform="translate(0 0.78125)"/>
      <use xlink:href="#DejaVuSans-3d" transform="translate(78.662109 0.78125)"/>
      <use xlink:href="#DejaVuSans-33" transform="translate(181.933594 0.78125)"/>
     </g>
    </g>
   </g>
  </g>
 </g>
 <defs>
  <clipPath id="pa16a46f82a">
   <rect x="62.57" y="25.44" width="790.63" height="226"/>
  </clipPath>
  <clipPath id="p4490908506">
   <rect x="62.57" y="308.04" width="790.63" height="226"/>
  </clipPath>
 </defs>
</svg>
